<?xml version="1.0" ?><!DOCTYPE svg  PUBLIC '-//W3C//DTD SVG 1.1//EN'  'http://www.w3.org/Graphics/SVG/1.1/DTD/svg11.dtd'><svg enable-background="new 0 0 512 512" height="512px" id="Calque_1" version="1.1" viewBox="0 0 512 512" width="512px" xml:space="preserve" xmlns="http://www.w3.org/2000/svg" xmlns:xlink="http://www.w3.org/1999/xlink"><g><path d="M96.05,235.004c-3.153-3.075-5.651-6.012-4.38-4.938c-6.61-6.078-6.443-6.517-7.781-6.823   c-4.325-3.819-8.318-8.513-3.477-4.09l-12.056-11.424l6.94,7.1c-1.718-1.088-6.888-6.691-10.58-10.263l-0.223-0.215l-0.172-0.267   c-0.152-0.237-0.301-0.468-0.446-0.693l-0.107-0.17l-0.149-0.257c-0.072-0.132-0.142-0.262-0.211-0.391l-0.111-0.222l-0.065-0.141   l-0.037-0.083l-0.009-0.021l-0.002-0.005c0.628-0.328-1.408,0.729,1.409-0.735l-0.125,0.035l-0.498,0.14l-0.892,0.254l-0.001-0.001   l-0.087-0.234c-0.039-0.111-0.078-0.22-0.115-0.327l-0.079-0.258l-0.03-0.119l-0.038-0.186l-0.043-0.288   c-0.051-0.486-0.051-0.648-0.067-0.871c-0.013-0.188-0.024-0.367-0.036-0.534c-0.015-0.15-0.029-0.29-0.042-0.42   c-0.009-0.056-0.018-0.11-0.026-0.162l-0.015-0.056c-0.002-0.011-0.006-0.006-0.009-0.009l-0.004-0.002   c0.365,0,0.729-0.001,1.09-0.002l-0.929,0.002c-0.221,0-0.158,0-0.166,0v0.001v0.004l0,0.04l-0.003,0.107l-0.008,0.26l-0.015,0.583   c-0.003,0.215-0.007,0.417,0.005,0.746l0.021,0.316l0.036,0.283l0.037,0.201l0.028,0.121c0.068,0.272,0.091,0.331,0.126,0.451   l0.087,0.28l0.036,0.115l0.008,0.027l0,0.001l1.639-0.465l0.107-0.03c-3.267,1.644-0.905,0.457-1.634,0.824l0.002,0.005l0.004,0.01   l0.008,0.019l0.016,0.038c0.165,0.387,0.248,0.534,0.37,0.771c0.365,0.653,0.396,0.675,0.729,1.208l0.167,0.267l0.263,0.262   l9.721,9.655l-0.777-0.493c3.047,2.74,8.603,8.425,10.503,10.445c-0.38-0.239-0.297,0.073-2.552-2.156   c15.311,15.376,4.883,3.383,17.758,15.973C98.355,237.405,97.373,236.411,96.05,235.004z" fill="#202020"/><path d="M108.035,249.087l5.89,4.814l8.84,9.118c0.288-0.084,6.978,6.308,2.713,1.715   c-0.896-0.836-2.662-2.492-4.027-3.892c1.403,0.601,12.141,11.74,9.908,8.695c-7.208-6.995-8.209-8.173-12.906-12.218   c-6.473-6.548-11.122-11.381-14.015-14.567c-1.993-1.871-2.511-1.896-5.016-4.303c0.548,0.539,1.052,1.033,1.683,1.652   l-0.338,0.868c2.175,1.921,4.051,3.917,6.335,6.176l-11.215-9.806c2.824,3.954,13.483,13.95,17.375,18.311   C108.653,250.024,117.59,259.473,108.035,249.087z" fill="#202020"/><path d="M99.423,238.449c-0.068-0.067-0.181-0.179-0.259-0.256C99.242,238.271,99.355,238.382,99.423,238.449z" fill="#202020"/><path d="M371.914,390.781c2.958-0.877,3.747-1.389,4.138-1.617c0,0-2.043,0.717-5.173,1.578   c-3.126,0.869-7.354,1.827-11.638,2.45c-4.281,0.646-8.607,0.948-11.853,1.029c-1.62,0.043-2.974,0.034-3.96,0.036   c-0.974,0.001-1.529,0.001-1.529,0.001c0.56,0.106,3.408,0.254,5.189,0.324c1.804,0.057,2.645,0.146-0.708,0.297   c1.498,0.107,4.532,0.006,7.335-0.311c2.805-0.308,5.368-0.814,5.995-1.065c0,0-0.611,0.176-1.223,0.351   c-0.615,0.168-1.229,0.335-1.229,0.335c3.957-0.716,7.275-1.29,9.001-1.477c1.721-0.194,1.857,0.072-0.693,0.765l0.667-0.146   c0,0,1.35-0.394,3.341-1.065c1.991-0.671,4.612-1.646,7.172-2.744c5.141-2.167,9.929-4.935,9.93-4.935   c-3.686,1.665-5.093,2.334-6.68,3.133C378.399,388.484,376.614,389.393,371.914,390.781z" fill="#202020"/><path d="M102.979,162.127c3.206-3.315,3.549-3.773,3.12-3.461C104.974,159.878,103.915,161.039,102.979,162.127z" fill="#202020"/><path d="M391.083,381.918c0,0,1.452-0.93,2.864-1.91c1.415-0.977,2.787-2.004,2.787-2.004   C394.498,379.589,392.491,380.939,391.083,381.918z" fill="#202020"/><path d="M345.453,401.58c-0.015,0.028-0.095,0.054,0.102,0.09c0,0,0.833-0.079,1.666-0.159   c0.831-0.092,1.662-0.184,1.662-0.184c-0.05,0.001-0.064,0.002-0.085,0.003C347.572,401.422,346.47,401.504,345.453,401.58z" fill="#202020"/><path d="M428.378,248.388c-0.374-0.619-0.696-1.152-1.144-1.891C427.652,247.186,428.028,247.809,428.378,248.388z" fill="#202020"/><path d="M249.028,404.597l15.821-0.507c-2.108,0.239,5.522,0.168,2.189,0.448c1.206-0.039,6.858-0.134,5.317-0.258   l-3.228,0.016c8.342-0.699,3.289-0.968,17.121-1.5c-8.587-0.416-12.353-0.035-16.9,0.283c-1.542,0.035-2.834,0.065-4.141,0.096   l-13.154,0.979L249.028,404.597z" fill="#202020"/><path d="M124.803,191.749l0.173-0.054C124.817,191.714,124.788,191.732,124.803,191.749z" fill="#202020"/><path d="M125.667,191.471l-0.691,0.224C125.826,191.583,129.082,191.476,125.667,191.471z" fill="#202020"/><path d="M389.05,383.49c0.128-0.211,0.849-0.747,2.033-1.572c0-0.001-1.08,0.697-2.184,1.362   c-1.101,0.671-2.224,1.307-2.224,1.307C387.34,384.28,388.216,383.875,389.05,383.49z" fill="#202020"/><path d="M378.822,389.577c0,0-3.076,1.157-6.23,2.085c-3.146,0.951-6.357,1.669-6.357,1.669s-1.17,0.334-2.34,0.668   c-1.18,0.306-2.359,0.611-2.359,0.611C366.486,393.629,372.243,392.204,378.822,389.577z" fill="#202020"/><path d="M435.943,266.742c-2.039-6.177-3.287-8.756-3.505-9.54c-0.262-0.768,0.354,0.314,1.111,1.824   c1.521,3.013,3.471,7.816,1.51,2.102c-1.357-3.391-2.508-5.583-3.54-7.437c-1.038-1.852-1.976-3.363-3.141-5.303   c2.605,4.484,3.508,6.744,3.859,7.716c0.332,0.985,0.039,0.735-0.254,0.497c-0.293-0.24-0.586-0.47-0.264,0.532   c0.293,1.014,1.292,3.222,3.021,8.09c-0.804-1.28-2.214-4.713-4.036-8.507c-1.798-3.805-4.041-7.949-5.818-10.951   c-1.854-3.501-0.79-2.148,0.877,0.297c1.674,2.438,3.729,6.077,4.421,6.744c-1.948-3.691-2.918-5.117-3.557-6.035   c-0.656-0.907-1.028-1.287-2.142-2.664c-3.468-5.522-7.912-10.652-12.25-14.889c-4.338-4.255-8.54-7.644-11.401-10.32   c-3.865-2.712-5.833-3.727-7.353-4.491c-1.532-0.741-2.644-1.212-5.105-2.31c-0.644,0.08,2.406,1.732,5.777,3.931   c3.392,2.167,7.033,4.968,8.192,6.269c-0.516-0.494-1.552-1.428-1.169-1.267c0,0,1.581,1.241,3.101,2.552   c1.523,1.308,2.982,2.686,2.982,2.686c-5.604-5.183,1.373,0.038,4.27,2.984c1.06,1.05,2.602,2.664,3.751,3.99   c1.148,1.327,1.927,2.344,1.59,2.093c0,0-0.764-0.831-1.527-1.661c-0.782-0.812-1.564-1.624-1.564-1.624   c3.761,4.379,8.632,9.532,11.459,15.026c0.034,0.353-1.248-1.576-1.527-1.813c2.045,2.754,3.833,5.628,5.59,8.986   c1.753,3.36,3.502,7.195,5.263,11.99c0,0-0.629-1.353-1.305-2.675c-0.668-1.326-1.383-2.622-1.383-2.622   c1.889,3.603,4.189,9.899,5.511,17.019c1.381,7.106,1.679,14.977,1.193,21.34c0.188-1.407,0.286-3.966,0.413-2.429   c0.035,3.766-0.33,7.058-0.692,8.947c-0.366,1.893-0.658,2.398-0.637,0.661c-0.098,3.653-1.344,10.549-3.687,17.438   c-1.147,3.451-2.54,6.9-3.938,10.03c-1.397,3.131-2.802,5.941-3.874,8.196c0,0-0.313,0.646-0.863,1.777   c-0.563,1.125-1.386,2.727-2.461,4.608c-2.132,3.771-5.329,8.644-9.054,13.171c-3.695,4.546-7.906,8.714-11.268,11.628   c-3.358,2.922-5.785,4.671-5.785,4.671c1.456-1.032,2.999-2.149,4.574-3.321c1.94-1.001,3.341-1.927,3.563-1.928   c0.212-0.014-0.703,0.947-3.65,3.406c2.965-2.315,3.722-3.227,4.887-4.369c1.136-1.177,2.729-2.533,6.755-6.422   c-1.463,1.644-2.32,2.756-1.78,2.58c0.521-0.191,2.517-1.622,6.244-5.565c4.477-5.096,7.987-10.242,10.839-15.356   c2.85-5.121,5.039-10.22,6.766-15.379c3.405-10.332,5.156-20.893,5.115-33.133c0.254-0.438,0.544-5.496,0.034-11.585   c-0.466-6.092-1.904-13.132-3.187-17.638c1.512,3.282,3.304,10.101,4.039,17.354c-0.188-2.276-0.565-5.365-1.141-8.582   c-0.583-3.215-1.371-6.553-2.182-9.357c0,0-0.415-0.495-0.83-0.99C436.362,267.229,435.943,266.742,435.943,266.742z" fill="#202020"/><path d="M436.737,327.221c0.262-0.616,0.501-1.266,0.741-1.934C437.324,325.635,437.104,326.213,436.737,327.221z" fill="#202020"/><path d="M441.094,288.86c0.024,0.09,0.036,0.058,0.059,0.088c-0.056-0.763-0.146-1.521-0.219-2.301   C440.992,287.427,441.069,288.307,441.094,288.86z" fill="#202020"/><path d="M395.17,381.402c-1.329,0.943-2.36,1.565-3.73,2.454c0.863-0.512,1.946-1.152,2.975-1.791   C395.378,381.428,395.813,381.092,395.17,381.402z" fill="#202020"/><path d="M389.989,383.284l0.668-0.575c-0.621,0.302-1.057,0.514-1.606,0.781   C388.931,383.669,389.154,383.666,389.989,383.284z" fill="#202020"/><path d="M366.999,198.03c0,0-0.643-0.115-1.286-0.229c-0.644-0.106-1.287-0.212-1.287-0.212   C365.967,197.891,366.635,198.005,366.999,198.03z" fill="#202020"/><path d="M423.817,240.384c2.606,3.748,2.83,3.934,3.399,4.461c0.267,0.275,0.605,0.647,1.278,1.659   c0.669,1.014,1.684,2.664,3.159,5.564c0,0-0.428-0.854-0.856-1.707c-0.444-0.846-0.89-1.691-0.89-1.691   c2.416,3.999,5.222,9.846,7.325,16.181c2.142,6.324,3.525,13.106,4.203,18.624c-0.227-0.604-0.087,1.077-0.041,2.755   c0.055,1.678,0.027,3.348-0.242,2.718c0.657,7.528,0.188,15.018,0.123,18.945c-0.375,2.321-0.771,5.256-1.38,8.32   c-0.601,3.063-1.407,6.257-2.418,9.074c0.515-1.162,0.088,0.938,0.029,1.585c-0.029,0.321,0.051,0.282,0.4-0.718   c0.34-1.002,0.981-2.959,1.81-6.528c-0.257,1.155-0.014,0.451-0.274,1.593c1.406-4.518,1.943-7.811,2.309-10.934   c0.349-3.13,0.523-6.106,0.714-10.162c0.228-2.421,0.28-0.434,0.247,1.596c-0.038,2.027-0.174,4.09,0.082,1.8   c0.143-2.545,0.291-5.816,0.237-9.282c-0.04-3.465-0.268-7.121-0.677-10.413c-0.788-6.598-2.274-11.686-2.661-11.234   c-0.917-3.566-1.524-5.571-1.895-6.976c-0.36-1.409-0.562-2.193-0.835-3.263c-1.248-2.656-2.893-6.477-4.994-10.566   c-2.088-4.094-4.64-8.445-7.304-12.285c-5.299-7.722-11.035-13.233-11.456-12.7c1.52,1.472,3.442,3.485,5.44,5.765   c1.994,2.282,4.063,4.829,5.965,7.299L423.817,240.384z" fill="#202020"/><path d="M408.07,372.266c0.446-0.371,1.04-0.864,1.41-1.172C409.063,371.441,408.544,371.872,408.07,372.266z" fill="#202020"/><path d="M293.583,391.047l4.016-0.902c11.431-0.108,19.212-0.099,26.635-0.066   c3.712,0.017,7.333,0.034,11.276,0.053c1.972,0.005,4.023,0.011,6.207,0.017c1.085,0,2.203,0,3.36,0   c1.087-0.001,2.21-0.029,3.375-0.071c1.431,0.061-0.829,0.246-1.98,0.295c6.571-0.132,14.76-1.082,22.247-3.094   c7.504-1.949,14.236-4.895,18.384-7.24c1.871-0.916,5.214-2.676,7.59-4.053c2.378-1.37,3.858-2.24,2.205-0.965   c1.66-1.189,3.521-2.591,5.399-3.991c0.345-0.061-0.681,0.76-1.813,1.6c-1.128,0.844-2.368,1.692-2.35,1.841   c1.553-1.031,2.172-1.417,2.461-1.749c-1.191,1.03-0.372,0.778-0.745,1.335c-0.188,0.276-0.675,0.761-1.897,1.671   c-1.226,0.902-3.18,2.253-6.409,4.055c-2.695,1.033-0.435-0.176,1.997-1.647c2.438-1.473,5.006-3.269,3.378-2.687   c-4.097,2.609-3.494,2.525-3.789,2.845c-2.69,1.561-4.077,2.179-4.725,2.435c-0.654,0.245-0.59,0.098-0.485-0.061   c-0.997,0.655-3.291,1.76-5.738,2.789c-2.442,1.041-5.034,2.003-6.526,2.716c-2.854,0.982-4.283,1.33-4.898,1.454   c-0.619,0.114-0.436-0.02-0.128-0.19c0.612-0.358,1.729-0.813-2.049,0.213c0,0-1.048,0.476-2.096,0.951   c-1.063,0.451-2.128,0.903-2.128,0.903c0-0.001-3.224,0.642-6.484,1.036c-3.258,0.419-6.537,0.588-6.537,0.588   c-4.741,0.377-6.928,0.405-8.009,0.585c-1.033,0.159-0.763,0.348-0.583,0.542c0.359,0.389,0.359,0.801-11.136,1.041   c3.021-0.443-6.201-1.186-16.901-1.363c6.402-0.031,18.236-0.584,26.502-0.332c-5.826-0.332-1.816-0.352,2.893-0.384   c4.53,0.021,9.551-0.479,6.704-0.645c-1.344,0.175-2.92,0.313-4.639,0.391c-0.431,0.015-0.869,0.03-1.315,0.046   c-0.472,0.01-0.952,0.02-1.438,0.029c-0.976,0.013-1.976,0.025-2.989,0.038c-4.057,0.032-8.328-0.004-12.072-0.101l2.454-0.078   c-7.963-0.09-13.99,0.797-24.979,0.457c-5.46,0.027-4.438-0.211-3.477-0.41C297.729,391.068,293.598,391.234,293.583,391.047z    M305.48,390.87l7.306,0.084C311.051,390.814,308.328,390.818,305.48,390.87z" fill="#202020"/><path d="M130.653,246.455c0.497,0.528,1.07,1.138,1.521,1.617C131.858,247.701,131.276,247.094,130.653,246.455z" fill="#202020"/><path d="M309.104,382.775l4.231,0.028C311.683,382.775,310.328,382.771,309.104,382.775z" fill="#202020"/><path d="M395.742,362.807c0,0,1.108-0.902,2.182-1.843c1.075-0.938,2.117-1.912,2.117-1.912   C398.345,360.534,397.017,361.694,395.742,362.807z" fill="#202020"/><path d="M97.246,212.965l-0.068-0.077c-0.149-0.126-0.263-0.224-0.42-0.357L97.246,212.965z" fill="#202020"/><path d="M379.113,216.296c-0.787-0.42-1.685-0.867-2.94-1.414C376.295,215.018,377.409,215.513,379.113,216.296z" fill="#202020"/><path d="M394.924,363.469c0.121-0.082,0.191-0.129,0.287-0.193c0.168-0.147,0.352-0.31,0.531-0.468L394.924,363.469   z" fill="#202020"/><path d="M267.272,380.303c-0.908,0.028-1.733,0.054-2.709,0.085C265.84,380.371,266.623,380.34,267.272,380.303z" fill="#202020"/><path d="M273.237,382.707c-0.975,0.021-1.906,0.047-2.632,0.084L273.237,382.707z" fill="#202020"/><path d="M208.68,402.89l5.696-0.123C211.576,402.781,209.905,402.829,208.68,402.89z" fill="#202020"/><path d="M258.16,382.152c-0.331,0.039-0.662,0.076-0.884,0.115C258.065,382.24,258.44,382.191,258.16,382.152z" fill="#202020"/><path d="M154.488,273.865c-0.102-0.102-0.211-0.21-0.272-0.271l-0.171-0.032   C154.056,273.575,154.437,273.81,154.488,273.865z" fill="#202020"/><path d="M146.85,285.22c-0.57-0.245-1.112-0.573-1.61-0.958c-0.243-0.186-0.499-0.418-0.694-0.608l-0.45-0.438   c-0.601-0.585-1.205-1.173-1.803-1.756c0.661,0.653,1.313,1.299,1.919,1.897c0.171,0.164,0.339,0.325,0.503,0.482   c0.226,0.211,0.463,0.4,0.7,0.574C145.891,284.76,146.383,285.024,146.85,285.22z" fill="#202020"/><path d="M299.4,207.817c-1.508-0.123-5.048-0.27-3.396-0.409C293.117,207.584,293.31,208.013,299.4,207.817z" fill="#202020"/><path d="M131.075,257.952c0.723,0.562,1.583,1.297,2.445,2.038C131.943,258.587,130.563,257.351,131.075,257.952z" fill="#202020"/><path d="M133.521,259.99c0.782,0.691,1.619,1.43,2.319,2.048C135.033,261.309,134.251,260.618,133.521,259.99z" fill="#202020"/><path d="M337.769,200.782c0.375,0.058,0.956,0.105,1.744,0.121C339.281,200.788,338.653,200.763,337.769,200.782z" fill="#202020"/><path d="M139.529,278.506c-0.777-0.492-16.476-15.57-3.606-2.555c-0.944-0.054-8.509-8.098-12.07-11.438   c2.402,2.61-1.532-0.961-0.93-0.041c1.765,1.657,3.927,3.564,6.725,6.425c1.098,1.504-3.333-2.651-6.609-6.079   c3.895,4.364-5.592-4.888,0.072,1.137c6.326,6.169,11.736,11.421,16.745,16.146c0.627,0.59,1.247,1.173,1.86,1.749l0.918,0.857   l0.457,0.424c0.253,0.241,0.576,0.526,0.886,0.758c2.55,1.958,5.974,2.437,8.829,1.428c0.716-0.248,1.402-0.578,2.032-0.989   c0.314-0.205,0.618-0.426,0.902-0.667c0.13-0.104,0.319-0.275,0.481-0.429c0.103-0.097,0.12-0.118,0.155-0.155l0.102-0.108   l0.099-0.101l0.046-0.051l0.092-0.102l0.181-0.206c0.116-0.143,0.233-0.282,0.341-0.431c0.218-0.294,0.422-0.599,0.603-0.917   c0.366-0.633,0.652-1.308,0.853-2.001c0.82-2.773,0.214-5.823-1.5-8.005c1.323,1.811,1.929,4.173,1.604,6.451   c-0.293,2.28-1.588,4.48-3.412,5.866c-1.864,1.454-4.318,2.103-6.639,1.792c-1.162-0.148-2.298-0.529-3.315-1.112   c-0.509-0.291-0.987-0.631-1.424-1.009c-0.111-0.094-0.216-0.191-0.321-0.291l-0.235-0.228l-0.341-0.337   c-3.636-3.588-7.077-7.051-9.908-10.062l2.84,2.071c1.566,1.734,3.011,3.275,4.398,4.711c0.699,0.714,1.378,1.406,2.046,2.089   c0.337,0.338,0.672,0.673,1.005,1.007c0.223,0.229,0.927,0.939,1.585,1.362c1.363,0.918,2.935,1.437,4.635,1.479   c1.577,0.043,3.302-0.387,4.748-1.298c0.375-0.232,0.691-0.467,1.061-0.78l0.288-0.259l0.135-0.132   c0.194-0.19,0.313-0.319,0.466-0.493c0.574-0.657,1.065-1.419,1.424-2.255c0.726-1.669,0.929-3.628,0.45-5.544   c0,0,0.163,0.535,0.229,1.501c0.063,0.956-0.014,2.374-0.668,3.909c-0.326,0.763-0.793,1.546-1.416,2.255   c-0.168,0.193-0.288,0.317-0.523,0.55l-0.157,0.146l-0.331,0.289c-0.408,0.336-0.812,0.611-1.269,0.868   c-0.903,0.506-1.93,0.854-2.997,0.996c-0.267,0.034-0.536,0.058-0.806,0.068l-0.48,0.004l-0.254-0.01l-0.484-0.037l-0.404-0.053   c-0.269-0.043-0.536-0.098-0.8-0.165c-1.056-0.271-2.062-0.753-2.918-1.392c-0.214-0.161-0.42-0.328-0.616-0.505   c-0.188-0.168-0.411-0.393-0.486-0.472c-0.217-0.223-0.431-0.443-0.642-0.66c-0.843-0.866-1.629-1.675-2.304-2.368   c-1.348-1.387-2.247-2.312-2.247-2.312c-6.513-7.152-1.868-2.655,3.588,2.661C140.972,280.132,139.797,278.91,139.529,278.506z" fill="#202020"/><path d="M151.376,280.647l-0.169,0.079c-0.135,0.095-0.321,0.182-0.417,0.231   C150.803,280.98,151.389,280.666,151.376,280.647z" fill="#202020"/><path d="M207.628,391.881l1.772-0.205C207.921,391.767,207.465,391.832,207.628,391.881z" fill="#202020"/><path d="M151.441,272.186l0.01,0.011C151.348,272.102,151.324,272.079,151.441,272.186z" fill="#202020"/><path d="M175.666,391.987L175.666,391.987L175.666,391.987z" fill="#202020"/><path d="M183.842,380.381c-0.082-0.025-0.105-0.049-0.297-0.074C182.603,380.337,183.059,380.362,183.842,380.381z" fill="#202020"/><path d="M175.666,391.987L175.666,391.987L175.666,391.987z" fill="#202020"/><path d="M386.396,380.394c0,0-0.664,0.239-1.702,0.615C384.327,381.233,384.743,381.118,386.396,380.394z" fill="#202020"/><path d="M344.15,389.257c-0.269-0.021-0.428-0.033-0.773-0.06L344.15,389.257z" fill="#202020"/><path d="M309.408,210.267c2.094,0.008,3.665-0.006,4.99-0.029C312.871,210.224,311.219,210.226,309.408,210.267z" fill="#202020"/><path d="M175.667,391.988c0.003,0.003-0.02-0.019-0.047-0.03C175.652,391.972,175.671,391.991,175.667,391.988z" fill="#202020"/><path d="M428.966,332.024c-0.165,0.423-0.319,0.818-0.475,1.219c0.114-0.234,0.229-0.469,0.341-0.698   L428.966,332.024z" fill="#202020"/><path d="M435.648,310.892c-0.067,0.759-0.064,1.114-0.089,1.544c0.641-3.929,1.304-9.541,1.366-14.405   c0.097-4.862-0.312-8.936-0.668-9.767c0.132,1.336,0.287,5.493,0.071,9.002c-0.188,3.512-0.635,6.356-0.704,5.168   c-0.127,2.737-0.598,6.107-1.214,9.12c-0.605,3.017-1.337,5.675-1.668,7.108c1.25-4.312,1.341-4.554,1.112-2.919   c-0.243,1.63-1.031,5.081-1.893,8.012c-1.949,5.191-0.074-1.119-1.763,3.33c0,0-1.081,3.005-2.394,5.916   c-1.291,2.92-2.808,5.733-2.808,5.733s1.348-2.436,2.527-4.956c1.197-2.513,2.22-5.104,2.22-5.104s-0.187,0.837-0.373,1.675   c-0.203,0.837-0.406,1.674-0.406,1.674c0.145-0.389,0.244-0.655,0.4-1.071c1.757-4.399,2.472-6.764,2.946-8.021   c0.452-1.265,0.603-1.446,0.759-1.64c0.155-0.195,0.319-0.402,0.734-1.748C434.197,318.196,434.91,315.714,435.648,310.892z" fill="#202020"/><path d="M435.559,312.436c-0.185,1.181-0.347,2.217-0.473,3.025C435.459,313.698,435.526,312.998,435.559,312.436z" fill="#202020"/><path d="M418.391,238.392c-0.622-0.77-1.312-1.592-2.21-2.595C416.613,236.271,417.574,237.407,418.391,238.392z" fill="#202020"/><path d="M352.218,395.642c-0.17-0.069-2.973,0.016-5.705-0.002c-2.723-0.018-5.457-0.02-5.348,0.202   c3.279,0.045,6.525,0.117,9.795-0.055L352.218,395.642z" fill="#202020"/><path d="M217.815,204.813c1.225,0.003,2.454,0.007,3.684,0.011c0.264-0.024,0.519-0.048,0.716-0.066   C221.465,204.694,219.039,204.773,217.815,204.813z" fill="#202020"/><path d="M435.615,299.043c-0.014,2.008-0.027,2.904,0.01,3.392C435.69,301.134,435.689,299.93,435.615,299.043z" fill="#202020"/><path d="M217.123,203.795c-1.561-0.122-3.861-0.309-4.188-0.472c-3.194-0.004-5.437,0.221-8.688,0.301   C207.916,203.562,212.162,203.605,217.123,203.795z" fill="#202020"/><path d="M203.983,203.632c0.091-0.002,0.182-0.005,0.264-0.008C204.156,203.627,204.074,203.63,203.983,203.632z" fill="#202020"/><path d="M358.684,395.139c0.922-0.171,1.872-0.348,2.851-0.529l-1.472,0.354c2.487-0.34,4.949-0.77,7.398-1.287   c0.875-0.237,1.822-0.495,2.986-0.812c-0.466,0.142-0.819,0.276-1.035,0.379c0.793-0.193,1.567-0.382,2.342-0.569   c2.831-0.999,7.738-2.777,12.247-4.913c4.527-2.096,8.641-4.514,10.413-5.696c4.811-2.941,10.339-7.044,13.655-9.799   c-3.061,2.57-7.382,5.661-5.938,4.943c3.394-2.248,5.919-3.953,8.859-6.338c2.907-2.407,6.29-5.493,10.604-11.089   c0,0-1.323,1.589-2.714,3.12c-1.389,1.532-2.842,3.004-2.842,3.004c0-0.001,3.118-3.466,5.852-7.21   c2.773-3.717,5.138-7.681,5.138-7.681c1.936-2.589,0.818-0.577-1.076,2.299c-1.884,2.882-4.718,6.483-5.446,7.559   c4.541-5.614,8.396-10.985,11.328-15.824c2.932-4.833,4.942-9.11,5.806-12.369c0.4-0.347,0.946-0.811,1.783-2.325   c0.822-1.518,1.983-4.088,3.211-8.728c-1.188,3.258-0.893,1.841-0.555,0.292c0.318-1.558,0.639-3.26-0.347-0.61   c0.292-1.62,0.951-4.182,1.42-6.44c0.48-2.256,0.787-4.199,0.646-4.495l0.065,0.907c1.617-7.973,1.538-13.452,1.232-17.657   c-0.353-4.222-1.015-7.23-1.629-10.619c-1.358-9.54-3.37-16.317-5.616-22.495c-2.315-6.154-4.927-11.764-9.164-18.388   c-0.067-0.669-1.568-4.872-5.625-9.832c-1.095-1.023-4.007-4.236-7.048-7.041c-3.019-2.828-6.14-5.239-6.875-5.49   c4.193,3.766,5.828,5.388,7.181,6.504c1.326,1.142,2.307,1.844,4.578,4.369c1.597,2.349,1.527,2.56,1.689,2.925   c0.132,0.384,0.513,0.908,2.63,4.097c-1.687-2.583-6.05-8.069-11.146-12.945c-2.529-2.453-5.205-4.774-7.597-6.72   c-2.394-1.943-4.493-3.521-5.814-4.59l2.007,1.306c-4.314-3.266-6.876-5.291-10.389-7.542c-1.763-1.112-3.779-2.259-6.445-3.481   c-2.67-1.208-5.993-2.501-10.387-3.7c0,0-2.091-0.59-4.206-1.069c-2.112-0.49-4.24-0.883-4.24-0.883   c0.419,0.035,0.48-0.016,0.709-0.014c-3.45-0.819-5.829-1.268-7.676-1.615c-1.849-0.342-3.169-0.576-4.541-0.773   c-2.752-0.366-5.683-0.764-13.588-0.453c1.225-0.039,0.456-0.102,1.7-0.14c-9.034-0.318-18.145,0.321-24.975,0.455   c-4.169-0.473,0.989-0.465,3.568-0.808c-15.893-0.183-33.043,0.628-42.913,1.205l-10.244-0.277   c6.075-0.195,13.501-0.694,11.646-0.979c-5.633,0.095-4.543,0.318-12.511,0.228c1.359-0.303,4.702-0.584,8.448-0.965   c-16.479-0.506-3.684,1.072-15.216,0.145c-5.177-0.006-8.184,0.436-8.75,0.801l-9.38-0.478c-1.042,0.465-12.622,0.492-20.21,0.562   c-0.927,0.2,6.109,0.496,8.986,0.316c-0.566,0.365-8.64,0.537-13.832,0.53c-1.902-0.975-33.994,0.141-27.856-1.008   c-23.322,0.317-56.087,0.416-71.48,0.823c-5.077-0.27-15.422-0.283-9.222-0.741c-2.714,0.019-5.239,0.037-7.63,0.054   c-2.629,0.048-5.11,0.094-7.502,0.138c-5.084,0.127-9.792,0.245-14.626,0.366c2.261-2.382,4.678-4.9,7.384-7.657   c1.372-1.384,2.792-2.816,4.279-4.314c1.489-1.469,3.045-3.004,4.684-4.621c0.287-0.244,0.086-0.02-0.439,0.521   c-0.574,0.586-1.452,1.481-2.353,2.399c-1.796,1.835-3.622,3.736-3.131,3.475c1.153-1.222,2.321-2.433,3.498-3.632   c1.134-1.139,2.258-2.268,3.39-3.403c2.093-2.07,4.24-4.138,6.538-6.351c4.596-4.427,9.797-9.436,16.387-16.21   c-2.236,2.261-2.749,3.059-2.99,3.443c-0.348,0.12,5.238-5.712,8.584-9.28c2.002-1.883-2.505,2.67-1.327,1.668   c6.537-6.37,12.611-12.435,18.445-18.35c2.907-2.968,5.767-5.886,8.601-8.78l1.058-1.087c0.388-0.389,0.613-0.637,0.84-1.003   c0.43-0.694,0.636-1.516,0.594-2.321c-0.056-1.62-1.221-3.098-2.722-3.561c-0.745-0.24-1.561-0.246-2.301-0.022   c-0.371,0.11-0.721,0.278-1.039,0.493c-0.15,0.103-0.327,0.239-0.434,0.343c-0.156,0.144-0.31,0.31-0.495,0.5   c-1.398,1.446-2.798,2.894-4.204,4.348c-2.816,2.903-5.655,5.83-8.54,8.803c-5.78,5.936-11.771,12.031-18.197,18.441   c3.671-3.662,6.085-6.299,7.568-8.055c1.482-1.755,2.034-2.628,1.979-2.761l-7.191,7.174c-2.54,2.996-7.934,8.388-12.273,13.068   c-0.64,0.468-2.926,2.569-0.795,0.223c-7.326,6.863-12.659,12.612-18.363,18.789c-2.852,3.088-5.797,6.284-9.131,9.779   c-1.667,1.748-3.431,3.57-5.329,5.492c-0.954,0.956-1.937,1.941-2.953,2.959c-0.255,0.253-0.513,0.508-0.772,0.766l-0.196,0.193   l-0.071,0.08c-0.078,0.092-0.171,0.213-0.26,0.336l-0.124,0.174l-0.039,0.058l-0.02,0.029l-0.01,0.015   c0.126-0.208,0.03-0.048,0.056-0.091l-0.07,0.122l-0.122,0.215l-0.05,0.091c-0.007,0.012-0.002,0.003-0.004,0.005   c-0.001,0.001,0-0.004-0.003,0.002l-0.007,0.016c-0.031-0.007,0.06,0.04-0.072-0.012l-0.591-0.224   c-1.382-0.611-0.235-0.102-0.475-0.212l0.266,0.097l0.698,0.238c0.16,0.052,0.234,0.073,0.192,0.058   c0-0.003-0.001,0.002-0.001,0.003l-0.023,0.078l-0.064,0.238l-0.165,0.632c0.008-0.025,0.052-0.212,0.089-0.411   c0.02-0.101,0.044-0.226,0.073-0.373c0.011-0.055,0.023-0.113,0.036-0.176c0-0.003,0.002-0.012,0-0.007   c0.056,0.02-0.158-0.048-0.255-0.081l-0.362-0.125c-0.238-0.084-0.373-0.122-0.561-0.203l-0.13-0.058   c1.271,0.568,0.395,0.174,0.698,0.308l0.075,0.028l0.3,0.113c0.287,0.114,0.195,0.06,0.216,0.056l0.005-0.015   c0.001-0.002-0.002,0.001,0-0.006c0.063-0.133,0.134-0.28,0.211-0.441c0.092-0.159,0.227-0.366,0.346-0.535l0.08-0.11   c0-0.002,0.042-0.049,0.005-0.015l0.076-0.083c0.102-0.111,0.207-0.225,0.314-0.343c0.215-0.235,0.441-0.481,0.677-0.739   c1.888-2.061,4.405-4.808,6.922-7.554c5.034-5.494,10.068-10.988,10.068-10.988l-5.531,4.889l8.839-9.676   c-5.782,5.275-10.007,10.668-11.02,10.987c1.071-1.266,3.918-4.05,3.819-4.325c-5.444,5.172-5.603,5.849-9.527,9.906   c9.811-11.218,30.438-31.82,41.36-43.087c1.69-1.801-1.324,1.664-1.562,2.045c4.504-4.55,7.44-7.047,13.017-12.868   c3.241-3.836-2.919,2.481-5.759,5.258c0.128-0.646,1.557-2.043,4.646-5.21c0.513-0.167,4.836-4.429,9.588-9.1   c2.385-2.326,4.876-4.756,7.027-6.853c1.083-1.04,2.088-1.99,2.961-2.793c0.219-0.2,0.429-0.391,0.629-0.574   c0.101-0.09,0.199-0.179,0.294-0.265c0.163-0.146,0.176-0.155,0.343-0.292c0.538-0.433,1.004-0.675,1.442-0.856   c1.724-0.874,3.506-0.842,4.867-0.422c1.378,0.417,2.39,1.229,3.035,1.956c1.365,1.596,1.549,2.953,1.698,3.667   c0.112,0.742,0.135,0.966,0.216,0.904c0.071-0.061,0.156-0.408,0.199-0.773c0.049-0.365,0.048-0.745,0.088-0.848   c0.031-0.102,0.148,0.07,0.248,0.844c0.057,0.747,0.176,2.233-0.93,4.249c-0.281,0.493-0.653,1-1.125,1.488   c-0.328,0.327-0.684,0.684-1.071,1.071c-0.763,0.753-1.649,1.628-2.676,2.641l-5.269,4.479   c-9.167,9.777-21.146,22.297-31.948,32.931l2.246-2.271c1.335-1.673-1.254,0.708-2.441,1.722   c-4.134,3.965-7.901,7.887-11.297,11.382c-0.852,0.872-1.679,1.717-2.478,2.535c-0.772,0.772-1.517,1.517-2.232,2.233   c-1.105,1.079-2.161,2.045-3.261,2.948c-1.829,2.075-3.894,4.368-6.009,6.693c4.13-0.152,8.636-0.319,13.033-0.481   c6.138-0.133,12.123-0.264,17.274-0.375c2.015,0.368-2.857,0.524-9.008,0.646c-1.538,0.028-3.156,0.058-4.767,0.088   c-1.404,0.031-2.802,0.062-4.117,0.091c-2.101,0.066-4.02,0.146-5.275,0.26l11.063-0.003c-1.051,0.006-2.022,0.011-2.927,0.016   c-0.806,0.014-1.553,0.027-2.253,0.04c-1.151,0.034-2.171,0.083-3.148,0.145c-1.958,0.124-3.735,0.298-6.086,0.508   c2.363,0.034,4.417,0.02,6.23-0.024c0.901-0.03,1.749-0.059,2.568-0.086c0.906-0.04,1.782-0.078,2.652-0.116   c3.881-0.167,7.685-0.375,13.333-0.468c-0.879,0.2,0.629,0.323,5.84,0.329l1.479-0.489c0.096,0.04,0.672,0.077,2.281,0.108   l20.1-0.299c-4.265-0.209-4.471-0.635-9.663-0.641c1.854,0.285-2.55,0.342-7.747,0.334c4.553-0.319-5.067-0.27-4.957-0.533   c10.417,0.013,23.217-0.053,30.046-0.187l2.219,0.45c9.928,0.114,20.412-0.137,27.146-0.006l-2.123,0.239   c11.911,0.138,23.639-0.152,34.215,0.287c10.624-0.515,24-0.943,32.683-1.481c4.645-0.582,31.175,0.729,43.153-0.089   c0.807,0.063-8.228,0.438-12.314,0.657c7.968,0.09,14.303-0.633,16.8-0.021c-17.881-0.206,0.961,0.488-7.094,0.662   c8.371-0.011,17.199-0.122,21.306-0.34c-13.549,0.005,4.813-0.846-8.904-0.579c10.628-0.515,25.133-0.72,37.798-0.521   c-0.106,0.267,1.394,0.378,6.199,0.504c0,0,0.99-0.077,1.981-0.153c0.994-0.057,1.987-0.113,1.987-0.113   c3.08,0.209,0.093,0.125-2.105,0.187c-1.101,0.034-2.003,0.085-1.857,0.146c0.145,0.062,1.338,0.098,4.422,0.28   c3.183,0.001,7.174,0.307,11.405,0.986c4.232,0.671,8.699,1.711,12.866,2.966c8.363,2.462,15.419,5.842,18.181,6.596   c4.201,2.503,0.076,0.35-3.616-1.22c-1.845-0.792-3.58-1.437-4.013-1.523c-0.44-0.072,0.447,0.364,3.702,2.013   c-3.933-1.6-8.617-3.45-12.755-4.727c-4.129-1.298-7.672-2.076-9.094-2.075c4.056,0.824,4.738,1.214,5.076,1.442   c0.332,0.251,0.313,0.401,2.856,1.162c0,0,2.225,0.573,4.421,1.258c2.199,0.678,4.368,1.459,4.368,1.459l-1.888-0.769   c7.328,2.463,16.422,6.936,24.915,13.23c8.528,6.242,16.35,14.27,22.227,22.241c5.197,6.593,9.042,12.652,12.384,19.454   c3.283,6.815,6.122,14.436,7.848,24.506c-0.71-2.933,0.006,1.246,0.295,4.608c0.149,1.681,0.215,3.153,0.146,3.412   c-0.086,0.262-0.253-0.698-0.816-3.835c0.454,4.658,0.73,9.288,0.833,12.785c0.123,3.496,0.131,5.859,0.267,5.958   c0.212-4.121,0.172-4.85,0.209-5.412c0.01-0.563,0.085-0.964,0.011-4.446c0.274,2.341,0.422,6.237,0.232,10.097   c-0.167,3.861-0.671,7.669-1.099,9.858c0.306-2.044,0.135-1.274,0.097-1.738c-0.767,4.878-0.996,6.036-1.013,6.891   c-0.054,0.847,0.056,1.379-0.705,4.883c-0.484,1.052-1.473,4.875-2.939,9.11c-1.438,4.243-3.404,8.867-4.949,11.742   c0,0-0.885,2.199-1.879,4.358c-0.987,2.163-2.082,4.281-2.082,4.281c1.144-2.359-0.008-0.391-1.705,2.216   c-1.687,2.616-4.032,5.797-4.644,6.27c-1.915,2.804-3.74,5.354-6.025,8.114c-2.293,2.749-5.046,5.722-9.005,9.099   c1.535-1.508-0.271,0.035-2.599,1.808c-2.321,1.785-5.212,3.724-5.413,3.596c-7.301,4.987-13.632,8.7-20.174,11.81   c-6.544,3.066-13.354,5.52-21.696,6.815c0.498-0.201,3.766-1.117-1.071-0.297c-1.89,0.4-4.515,0.827-7.19,1.122   c-2.674,0.307-5.395,0.477-7.459,0.581l0.13-0.019c-0.08,0.008-0.13,0.013-0.215,0.021c-2.021,0.098-3.295,0.144-3.345,0.25   c-6.839,0.426-10.294,0.847-23.653,1.201c0.979,0.488,12.247,0.299,17.127,0.143l4.217-0.482c0.505,0.093,1.067,0.16,1.682,0.207   c0.645,0.042,1.337,0.07,2.058,0.065c1.442-0.002,2.999-0.089,4.519-0.232c3.042-0.274,5.924-0.759,7.544-0.855   c-2.064,0.495-5.147,0.987-8.851,1.279c-1.834,0.147-3.893,0.236-5.924,0.271c-1.984,0.032-4.063,0.066-6.187,0.102   c-8.494,0.121-17.717,0.201-24.633,0.467c4.217,0.34,10.912,0.536,18.554,0.637c3.821,0.028,7.879,0.058,11.981,0.087   c0.99,0.002,2.155,0.003,3.242-0.023c1.103-0.021,2.206-0.065,3.305-0.121c2.197-0.118,4.378-0.305,6.513-0.553   c0,0-1.89,0.144-3.779,0.21c-1.89,0.076-3.778,0.076-3.778,0.076s2.24-0.091,4.474-0.285c2.235-0.181,4.46-0.468,4.46-0.468   s-2.17,0.146-4.339,0.193c-2.168,0.057-4.33,0.019-4.33,0.019c8.452-0.304,15.698-1.646,23.086-3.571   c-4.325,1.158-7.423,1.551-8.778,1.644c-1.36,0.075-0.991-0.106,1.49-0.527c4.915-0.739,7.399-1.548,9.563-2.305   c2.145-0.812,4.017-1.52,7.557-2.859c-3.948,1.478-9.212,2.975-5.918,1.692c7.179-1.979,11.539-3.919,15.663-5.864   c4.104-2.008,8.001-4.06,13.788-7.656c-0.93,0.137,2.584-2.241,6.223-5.218c3.669-2.941,7.388-6.541,7.858-7.499   c0,0-1.12,1.098-2.278,2.155c-1.154,1.062-2.339,2.088-2.339,2.088s2.416-2.29,4.665-4.732c2.265-2.428,4.353-5.001,4.353-5.001   c2.135-2.19,2.748-2.797,2.736-2.609c-0.017,0.183-0.693,1.126-1.265,1.899c-0.567,0.777-1.027,1.387-0.537,0.95   c0.473-0.449,1.95-1.901,4.9-5.559c2.637-3.441,4.369-6.169,5.69-8.416c1.313-2.254,2.211-4.037,3.01-5.735   c1.56-3.414,2.893-6.416,5.332-12.727c-0.573,2.166-1.796,5.791-3.737,10.002c-1.928,4.213-4.598,8.994-7.769,13.493   c0,0,1.005-1.33,1.967-2.693c0.967-1.36,1.884-2.757,1.884-2.757c-0.796,1.58-3.264,5.6-6.449,9.734   c-3.157,4.156-7.05,8.373-9.79,11.021c1.074-1.153,1.785-1.979,2.231-2.504c0.441-0.529,0.614-0.762,0.579-0.76   c-0.071,0.004-0.97,0.952-2.304,2.271c-1.329,1.325-3.11,3.005-4.877,4.531s-3.521,2.894-4.705,3.693   c-0.265,0.512,1.168-0.504,1.759-0.883c0.575-0.394,0.401-0.04-3.271,3.028c3.56-2.722,5.481-4.433,7.622-6.346   c2.115-1.941,4.474-4.079,8.339-8.279c-4.134,4.579-7.374,7.663-9.973,10.124c-2.613,2.447-4.607,4.257-6.579,5.952   c-1.974,1.692-3.928,3.271-6.588,5.082c-2.667,1.795-6.043,3.842-11,6.11c2.241-1.134,3.119-1.69,3.195-1.812   c0.075-0.124-0.663,0.166-1.717,0.599c-2.104,0.879-5.524,2.207-6.125,2.323c-2.146,0.945-5.438,2.284-8.715,3.394   c-3.271,1.124-6.512,2.031-8.407,2.537c0,0,0.903-0.05,1.808-0.099c0.905-0.065,1.811-0.13,1.811-0.13   c-6.105,1.792-10.41,2.229-14.901,2.597c-2.251,0.167-4.561,0.295-7.214,0.428c-2.604,0.112-5.547,0.238-9.122,0.391   c-0.842,0.19,1.983,0.265,5.202,0.194c3.123-0.083,6.144-0.384,4.835-0.246c-2.491,0.229-4.793,0.331-6.939,0.354   c-2.095,0.019-3.868,0.003-5.638-0.021c-3.494-0.05-6.585-0.162-9.61-0.303c-6.051-0.281-11.842-0.68-20.081-0.933   c-0.932,0.201-0.739,0.629-6.503,0.984c1.811-0.404-2.454-0.611,4.03-0.906c-5.51-0.172-12.036,0.125-16.896,0.283   c11.469,0.236-4.692,0.58-6.806,0.822c-5.941-0.068,1.811-0.402,5.466-0.52c-4.77-0.109-10.437-0.705-13.146-0.1   c-0.188-0.426,13.332-1.119,22.175-1.23l-5.961-0.068c4.106-0.217,4.875-0.156,10.792-0.09c-5.792-0.33-5.221-0.693-3.871-0.997   c0.759,0.062-0.423,0.101,0.303,0.161c4.765,0.109,8.419-0.008,7.314-0.234c4.284-0.571-6.608-0.357-9.836-0.643   c-2.439,0.039-4.88,0.077-7.271,0.115l-24.754,1.836c-10.575,0.215-15.33-0.225-23.274-0.502l-2.181,0.49   c-9.202-0.051-17.885-0.205-11.988-0.828c0.332,0.164,1.547,0.125,3.545,0.148c0.264-0.066,0.725-0.113,1.306-0.152   c0.191-0.035,0.298-0.056,0.456-0.086c-9.855,0.167-16.007,0.271-16.574,0.281c16.733-0.713,0.835-0.893,3.636-1.764l-16.901,0.285   c10.244,0.275,0.187,0.426-3.449,0.543c-1.004-0.49-13.611,0.004-19.542-0.064l0.437-0.1c-1.373-0.043-3.003-0.072-4.784-0.089   l-0.446-0.007l-0.177-0.007l-0.39-0.025c-0.49-0.044-0.867-0.105-1.304-0.206c-0.846-0.193-1.678-0.513-2.456-0.946   c-1.557-0.864-2.887-2.2-3.745-3.838c-0.867-1.634-1.225-3.561-1.02-5.389c0.195-1.851,0.975-3.642,2.156-5.032   c1.175-1.399,2.747-2.418,4.426-2.934c0.838-0.259,1.699-0.396,2.536-0.417c0.476-0.009,0.942-0.018,1.397-0.026   c-0.312-0.164,8.467-0.965,12.684-1.447c-11.743-0.184-4.774-0.381-5.715-0.684c1.215,0.027,3.4,0.033,3.655-0.029   c1.681-0.14-2.281-0.186-2.613-0.348c-3.153,0.052-6.329,0.104-9.4,0.155c-3.589,0.047-7.038,1.87-9.079,4.58   c-2.111,2.704-2.827,6.245-2.22,9.302c0.588,3.132,2.458,5.753,4.77,7.333c1.156,0.799,2.427,1.364,3.707,1.682   c1.21,0.336,2.818,0.374,3.324,0.322c2.115-0.105,3.872-0.237,5.145-0.409c-1.917-0.154-3.549-0.08-5.239,0.007l-0.159,0.008   l-0.312,0.004l-0.16,0.005l-0.416-0.016c-0.327-0.017-0.533-0.04-0.774-0.066c-0.236-0.029-0.474-0.067-0.711-0.111   c-0.949-0.182-1.899-0.492-2.81-0.953c-1.816-0.914-3.5-2.42-4.61-4.533c1.753,2.947,4.95,5.251,9.029,5.471   c1.882-0.025,3.891-0.052,6.038-0.08c4.064-0.001,8.65-0.001,13.835-0.002l3.4,0.411l10.437-0.222   c-4.356,0.217-1.734,0.645-12.684,0.727c1.397,0.387,10.859-0.088,17.563,0.043l3.429-0.545c-1.321,0.303,13.03,0.361,2.834,0.775   l-16.589,0.445l4.61,0.373l-14.024,0.104l3.309-0.281c-11.265,0.188-12.926-0.082-14.605-0.32c-0.839-0.119-1.684-0.229-3.735-0.27   c-0.513-0.005-1.102-0.011-1.784-0.017c-0.341,0.001-0.706,0.002-1.097,0.004c-0.155-0.001-0.313-0.001-0.474-0.002   c-0.14-0.005-0.087,0.005-0.506-0.018l-0.484-0.035l-0.382-0.045c-0.256-0.029-0.515-0.077-0.777-0.125   c-2.091-0.41-4.392-1.455-6.296-3.403c-1.895-1.905-3.411-4.867-3.45-8.309c-0.088-2.117,0.411-4.372,1.522-6.343   c1.103-1.974,2.792-3.686,4.931-4.826c1.066-0.57,2.246-0.994,3.48-1.23c0.617-0.119,1.249-0.192,1.881-0.215   c0.314-0.011,0.631-0.021,0.951-0.032c1.039-0.025,2.118-0.052,3.251-0.08c4.533-0.08,9.915-0.058,16.865,0.023   c-10.057,0.146-1.032,0.465-4.817,0.846c10.259,0.275,13.721-0.268,19.043-0.525c2.613,0.349,4.471,0.633-4.692,0.582   c-1.148,0.73,12.055-0.125,12.891,0.625c30.358-0.021,24.326-2.426,59.814-1.486l-1.331,0.303   c22.535-0.377,35.536-0.016,56.404-0.254c0,0,4.107,0.192,8.215,0.385c1.022,0.048,2.045,0.096,3.003,0.141   c0.89,0.041,1.721,0.07,2.434,0.083c1.427,0.03,2.379,0.015,2.379,0.015c-0.849,0.075-2.056,0.182-3.324,0.293   c-1.325,0.101-2.714,0.205-3.854,0.292c-2.354,0.205-3.67,0.441-1.365,0.628c-7.991-0.779-16.474-0.508-25.085-0.926   c-0.879,0.203,2.627,0.35,4.154,0.475c-5.196-0.008-7.805-0.357-14.667-0.222c0.331,0.161,7.818,0.354,2.175,0.448l-9.336-0.479   c-12.492,0.229-6.152,1.147-20.825,0.928c2.728-0.428,8.299-1.047,13.981-1.15c-6.705-0.092,8.938-0.258,2.818-0.514   c-9.658,0.633-14.321,0.131-27.164,0.528c1.508-0.089,1.906-0.212,5.066-0.251l-18.634-0.268c4.611,0.37-15.393,0.406-13.659,0.957   c19.86,0.229,14.024-0.104,36.655,0.209c-6.407,0.125-14.668,0.686-18.539,1.201c-0.196-0.021-0.523-0.039-1.22-0.049   c-3.458,0.545,0.067,0.691,0,1.645c10.331-0.678,17.237-0.121,29.422-0.511c2.291-0.522-7.069-0.665-13.126-0.53l10.734-0.346   l-2.113,0.24l27.246,0.174c-5.163,0.028-6.916,0.331-9.61,0.559c3.516,0.021,6.998,0.158,10.701,0.311   c-0.778-0.498-0.289-0.85,3.141-0.841c8.765,0.06,15.584,0.201,21.02,0.398c2.719,0.099,5.091,0.212,7.188,0.336   c2.066,0.141,3.863,0.264,5.461,0.372c0.649-0.035,1.382-0.074,1.971-0.106c-1.431-0.211,1.574-0.483,5.51-1.15   c3.945-0.637,8.781-1.831,11.214-2.734c-0.064,0.281,2.055-0.131,4.735-0.911c2.686-0.767,5.907-1.94,8.182-2.767   c2.106-1.613-1.324-0.831-6.923,0.536c-5.194,1.965-6.733,2.328-7.488,2.714c-0.773,0.338-0.805,0.585-3.34,1.474   c0,0-1.103,0.251-2.771,0.558s-3.905,0.661-6.16,0.905c-2.253,0.253-4.521,0.402-6.225,0.467c-1.757,0.053-2.928,0.088-2.928,0.088   s1.06-0.122,2.119-0.243c1.011-0.134,2.022-0.268,2.022-0.268c-2.207-0.007-4.631-0.034-6.792-0.007   c-2.178,0.033-4.186,0.063-5.874,0.088c-3.379,0.054-5.483,0.057-5.135-0.258c2.507-0.209,5.83-0.251,9.149-0.292   c3.297-0.053,6.707-0.056,8.972-0.329c0,0-0.37-0.006-0.926-0.015c-0.563-0.018-1.313-0.041-2.064-0.064   c-1.569-0.058-3.139-0.114-3.139-0.114c1.385-0.078,2.512-0.126,3.45-0.153c0.887-0.019,1.595-0.033,2.19-0.045   c1.184-0.009,1.92,0.038,2.729,0.081c0.808,0.042,1.687,0.08,3.148-0.005c1.46-0.096,3.509-0.301,6.604-0.929   c-4.678,0.153,1.165-0.05,6.313-1.728c-2.13,0.377-7.531,1.54-12.034,1.927c-4.497,0.425-8.001,0.305-6.132-0.178   c3.229-0.278,8.682-0.423,14.341-1.381c5.656-0.908,11.463-2.675,15.256-4.744l-0.351,0.253c5.896-2.346,9.586-4.6,12.314-6.423   c2.719-1.855,4.475-3.348,6.268-4.881c2.237-1.481,4.694-3.537,7.023-5.797c2.331-2.262,4.529-4.725,6.403-6.933l0.107,0.281   c0,0,1.324-1.566,2.563-3.198c1.246-1.627,2.404-3.315,2.404-3.315c-1.87,3.466-5.793,7.7-10.843,12.583l0.974-0.253   c-3.136,2.624-5.692,4.831-8.104,6.903c-2.414,2.063-4.691,3.98-7.323,5.797c3.899-2.52,9.261-6.298,13.423-10.14   c4.198-3.799,7.229-7.512,7.559-8.64c0,0,1.018-1.002,2.003-2.042c0.985-1.038,1.939-2.113,1.938-2.113   c0,0,0.368-0.578,0.735-1.157c0.358-0.583,0.718-1.167,0.718-1.167c1.354-1.648,1.537-1.512,0.814-0.071   c-0.73,1.433-2.426,4.146-5.089,7.368c-1.037,1.023-1.57,1.517-1.354,1.122c-1.202,1.516-2.359,2.979-4.104,4.843   c-1.755,1.849-4.09,4.127-7.854,6.95c0,0,0.958-0.814,1.889-1.654c0.935-0.837,1.838-1.705,1.838-1.705   c-4.434,3.801-9.028,6.98-12.974,9.379c-3.942,2.407-7.218,4.067-8.97,5.084c7.836-3.257,15.112-7.697,21.508-13   c6.4-5.299,11.921-11.452,16.394-18.071c1.765-4.504,3.803-9.646,3.858-12.198c2.188-4.707,4.268-10.472,5.674-16.234   c1.439-5.757,2.199-11.483,2.608-15.979l0.155,0.84c0.377-4.402,0.213-8.497-0.17-11.862c-0.125-4.679,0.804,3.148,0.685-0.112   c0,0-0.366-3.744-1.092-7.422c-0.69-3.686-1.741-7.277-1.741-7.277c0.341,0.384,1.33,3.634,2.04,7.603   c0.741,3.963,1.11,8.629,1.188,11.636c-0.059-1.136-0.271-3.417-0.293-2.68c0.125,3.487,0.263,8.496-0.094,13   c-0.321,4.505-1.089,8.476-1.745,9.89c-0.311,1.671-0.053-0.041-0.052-0.766c-0.001-0.362-0.052-0.477-0.256,0.197   c-0.181,0.68-0.565,2.132-1.299,4.894c-1.139,3.652-1.938,6.052-2.39,7.679c-0.463,1.622-0.607,2.459-0.666,2.87   c0.103,0.113,1.354-2.646,2.254-5c0.911-2.348,1.558-4.254,1.094-2.163c0.882-2.89,1.307-4.964,1.757-7.237   c0.433-2.278,0.902-4.758,1.484-8.575c-0.321,2.973-0.771,6.479-1.415,9.601c-0.635,3.123-1.439,5.855-2.138,7.305   c-1.657,5.689-2.448,8.154-2.218,8.652c0.19,0.486,1.283-1.058,2.354-3.705c-0.406,0.568,1.462-4.618,2.273-8.22   c0.431-1.793,0.68-3.161,0.583-3.128c-0.108,0.029-0.495,1.483-1.753,5.199c0.814-3.434,1.906-8.282,2.525-13.473   c0.642-5.184,0.786-10.692,0.45-15.254l0.113,0.411c0,0-0.11-2.839-0.427-5.658c-0.295-2.822-0.797-5.611-0.797-5.611   c0.419,1.547,0.942,4.944,1.199,5.034c0,0-0.565-3.918-1.522-7.736c-0.916-3.829-2.217-7.529-2.217-7.529   c0.73,2.082,0.978,2.809,0.997,2.635c0.013-0.171-0.223-1.233-0.623-2.67c-0.762-2.886-2.348-7.202-3.064-9.091   c-1.003-1.423-3.896-6.788-1.624-1.395c1.193,3.062,1.543,3.944,1.957,4.73c0.391,0.794,0.834,1.494,1.766,4.341   c0,0-0.784-1.977-1.677-3.897c-0.88-1.928-1.863-3.795-1.863-3.795l-0.23-0.688c0,0-0.628-1.109-1.292-2.192   c-0.66-1.086-1.353-2.146-1.353-2.146c-1.305-2.535-1.823-3.525-1.872-3.839c-0.058-0.31,0.325,0.073,0.636,0.387   c0.312,0.312,0.56,0.546,0.246-0.086c-0.323-0.624-1.166-2.148-3.308-5.152l0.446,1.989c-4.452-7.191-10.714-14.726-17.687-20.59   c-6.922-5.925-14.429-10.124-20.021-12.329c1.604,0.473,2.8,0.754,3.104,0.609c0.301-0.139-0.28-0.735-2.329-1.844   c2.397,1.102,5.969,2.843,9.623,5.024c3.663,2.166,7.39,4.779,10.346,7.146c0.519,0.518-1.415-0.862-4.405-2.795   c-2.986-1.944-7.086-4.336-10.681-6.26c1.497,1.402,6.029,3.72,9.992,6.349c3.988,2.581,7.391,5.39,7.348,6.146   c3.783,3.526,6.172,6.15,7.992,8.13c1.81,1.991,3.034,3.361,4.174,4.682c1.133,1.324,2.181,2.602,3.473,4.523   c1.277,1.926,2.83,4.493,4.639,8.519c0.289-0.008,0.907,1.09,1.513,2.292c0.611,1.198,1.206,2.501,1.6,2.845   c-0.59-2.594-3.022-8.103-6.742-13.752c-3.663-5.691-8.632-11.391-12.691-15.515c0.845,0.758,2.486,2.347,2.859,2.612   c-2.787-3.077-4.971-5.055-6.977-6.738c-2.019-1.672-3.88-3.043-6.291-4.645l0.555,0.477c-4.264-2.715-5.591-3.514-6.377-4.238   c-0.803-0.689-1.096-1.231-3.68-2.749c-1.041-0.512-3.41-1.725-5.438-2.588c-2.023-0.874-3.676-1.439-3.124-1.017   c0,0-2.459-1.125-4.999-2.076c-2.531-0.969-5.133-1.763-5.133-1.763l0.354,0.703c-2.946-0.756-4.748-1.203-6.494-1.579   c-1.747-0.366-3.446-0.654-6.208-0.786l-0.311,0.496c0,0,3.736,0.429,7.407,1.213c3.679,0.749,7.263,1.855,7.263,1.854   c-3.68-0.945-4.238-0.876-4.865-0.915c-0.636,0-1.342-0.13-5.437-0.764c2.308,0.23,3.059,0.317,2.88,0.211   c-0.179-0.101-1.293-0.351-2.73-0.616c-2.872-0.56-7.061-0.976-7.505-1.233c0,0-1.54-0.042-3.079-0.019   c-1.538,0.014-3.073,0.09-3.073,0.09l1.572-0.123c-0.603-0.049-1.145-0.069-1.644-0.087c-0.526-0.005-1.007-0.011-1.458-0.016   c-0.904,0.005-1.692,0.036-2.507,0.073c-1.63,0.074-3.365,0.173-6.351,0.139c3.521,0.146,6.434,0.313,9.588,0.395   c3.045,0.078,6.157,0.159,10.378,0.438c-1.53-0.098-3.437-0.192-5.48-0.218c-2.061-0.035-4.159,0.033-6.451,0.1   c-4.452,0.121-8.485,0.208-10.075,0.216c-6.858,0.221-11.646-0.181-18.063-0.24c12.314-0.211-4.313-1.597,20.364-1.218   c-0.457,0.101-2.455,0.078-3.228,0.016c1.645,0.336,5.343,0.326,9.299,0.199c1.942-0.076,3.95-0.155,5.8-0.228   c1.786-0.057,3.424-0.059,4.696-0.026c-0.64-0.239,0.37-0.291,0.417-0.382c0.023-0.048-0.194-0.113-0.983-0.211   c-0.79-0.096-2.151-0.238-4.423-0.333c0.744,0.076,0.636,0.159-0.077,0.233c-0.356,0.034-0.863,0.08-1.491,0.117   c-0.658,0.034-1.442,0.074-2.32,0.12c-3.515,0.145-8.547,0.219-13.06,0.061l1.59-0.829l-13.141-0.098l1.229-0.039   c-4.941-0.534-14.02,0.103-23.067-0.211c-6.532,0.296-31.593,0.061-20.811,0.928c-8.122-0.519-15.249,0.142-24.11,0.253   l11.047,0.338c-13.059,0.593-9.298,0.21-19.75,1.154c-1.056-0.227-3.386-0.413-1.263-0.652   c-17.545-0.043-42.601-0.278-52.894,0.401c-12.367-0.036-14.307-1.013-31.66-0.629c-3.655,0.117,2.848,0.775-8.641,0.537   c-0.773-0.062,11.061-0.614-1.733-0.549c-9.111,0.638-21.401-0.353-33.255,0.201c-1.564-0.058-3.417-0.095-5.279-0.127   c-1.784-0.033-3.579-0.065-5.118-0.093c-1.241-0.07-2.223-0.175-1.89-0.427c0.549,0.011,1.125,0.021,1.717,0.033   c1.203,0.004,2.437,0.009,3.671,0.013c2.743-0.01,5.492-0.02,7.999-0.028c5.014-0.042,9.055-0.129,10.124-0.25   c-1.369,0.305,7.051,0.295-0.254,0.529c14.985,0.382,9.726-0.313,23.169-0.052c0.927-0.202-6.912-0.559-9.793-0.378   c-0.063-0.689,26.506-0.333,14.557-1.16c-14.365-0.06-18.63,1.377-31.079,0.652c4.99-0.419,12.795-0.064,19.134-0.788   l-10.229-0.277l-7.425,0.498l0.442-0.102c-9.034-0.315-13.212-0.138-17.153,0.162c-0.964,0.08-1.915,0.159-2.921,0.242   c-0.535,0.078-1.1,0.161-1.731,0.253c-1.201,0.165-2.514,0.313-4.284,0.399c2.564,0.239,2.471,0.538,2.515,0.814   c-0.012,0.275,0.064,0.528,1.245,0.674c-1.304,0.038-2.419,0.042-3.479-0.018c0.69,0.804,0.919,1.315,0.236,1.192   c-1.091-0.956-1.938-1.683-2.49-2.125c1.162-0.188,0.655-0.335,0.425-0.507c-0.1-0.086-0.105-0.178,0.371-0.284   c0.483-0.106,1.438-0.226,3.439-0.369c-0.959-0.124-0.592-0.375-0.714-0.606c-0.135-0.231-0.884-0.44-4.766-0.479   c-3.451,0.223-2.826,0.361-2.144,0.468c0.728,0.106,1.625,0.18-0.243,0.272c0.24,0.223,0.677,0.629,1.236,1.149   c0.169,0.256,0.368,0.543-0.029,0.289c1.604,1.35,2.204,1.996,2.943,2.774c0.715,0.754,1.586,1.658,3.211,3.002l-0.822-0.626   c0.397,0.471,0.777,0.896,1.133,1.275c0.186,0.193,0.362,0.375,0.529,0.549c0.274,0.271,0.535,0.529,0.783,0.776   c1.002,0.977,1.847,1.74,2.666,2.478c1.636,1.475,3.164,2.848,5.617,5.625c-1.73-2.454,3.809,3.214,7.278,6.232   c-2.583-2.719-4.461-4.926-7.005-7.757c-1.272-1.416-2.71-2.987-4.487-4.856c-0.895-0.928-1.868-1.937-2.938-3.045   c-0.558-0.567-1.167-1.185-1.837-1.864c-0.468-0.181-0.708-0.199-1.091-0.397c-0.39-0.204-0.933-0.598-2.154-1.682l3.406,3.336   c-0.771-0.677-1.442-1.201-2.247-1.891l-2.956-3.253c2.342,2.138,3.075,2.615,3.581,2.843c0.485,0.207,0.772,0.192,1.644,0.766   c0.322,0.347,0.596,0.643,0.833,0.898c0.479,0.486,0.882,0.895,1.23,1.249c1.026,1.006,1.726,1.692,2.338,2.292   c1.235,1.188,2.123,2.021,4.459,4.449c-0.899-0.059,13.893,15.328,22.347,24.322c-1.35-1.361-3.091-3.117-4.031-4.065   c-6.603-6.072,4.01,4.71,4.129,5.06l4.829,4.409c-0.898-0.841-2.199-1.945-0.289,0.084c6.331,6.174,6.383,5.394,12.704,11.557   c0.237,0.7-5.391-4.227-1.631-0.223c0.568,0.77,1.784,2.354,3.919,4.757c1.068,1.202,2.366,2.608,3.928,4.22   c0.389,0.42,0.767,0.745,1.348,1.423c0.561,0.687,1.01,1.484,1.303,2.379c0.589,1.774,0.514,3.935-0.524,5.844   c-0.123,0.28-0.366,0.736-0.792,1.265c-0.117,0.146-0.195,0.235-0.383,0.435c-0.088,0.092-0.157,0.173-0.37,0.364   c-0.347,0.312-0.686,0.569-1.115,0.83c-1.648,1.041-4.342,1.534-6.829,0.427c0.683,0.305,1.599,0.502,1.932,0.52   c0,0-0.738-0.099-1.738-0.554c-0.496-0.23-1.053-0.551-1.576-0.981c-0.262-0.207-0.523-0.461-0.75-0.698   c-0.162-0.178-0.326-0.357-0.49-0.537c-1.314-1.44-2.628-2.881-2.628-2.881c0.636,0.537,1.258,1.092,1.871,1.659l1.92,1.818   c1.758,1.541,4.313,2.132,6.589,1.465c2.293-0.644,4.173-2.521,4.792-4.844c0.633-2.309-0.019-4.857-1.749-6.524   c-0.014-0.014-0.162,0.02-0.419-0.055c-0.194-0.007-0.388-0.014-0.388-0.014c-3.672-3.669-8.82-8.493-11.307-10.591   c2.767,2.83,4.469,4.516,6.272,6.266c0.904,0.872,1.829,1.766,2.925,2.825c0.548,0.53,1.139,1.102,1.792,1.733   c0.292,0.27,0.753,0.738,1.07,1.231c0.329,0.499,0.605,1.073,0.778,1.715c-0.028,0.78-0.308-0.76-1.487-2.009   c-1.138-1.04-2.473-2.261-2.81-2.568l1.148,0.72c-7.154-7.774-11.519-10.8-20.741-20.162c-1.388-1.417-0.504-0.589-0.121-0.348   c-7.886-7.159-14.768-15.037-22.559-21.869l2.582,2.187c-5.406-5.046-15.979-14.913-26.543-24.772l-0.48-0.188   c0.974,1.14-2.808-2.642-4.943-4.879c0.213,0.004,0.394,0.008,0.568,0.012l-0.01,0.003c7.95-0.24,15.589-0.47,21.838-0.658   c-2.141-0.127-4.989-0.234-8.244-0.264c-1.079,0.103-4.585,0.126-8.014,0.162c-3.427,0.035-6.762,0.083-7.374,0.233   c0.439,0.365,0.639,0.473,0.618,0.337c2.076,2.31,5.476,5.66,8.623,8.733c3.167,3.094,6.088,5.921,7.831,7.811   c-3.177-3.427-1.837-2.271,0.276-0.332c1.89,1.714,4.537,4.196,5.135,4.579c1.612,2.104,8.207,8.169,7.153,7.776   c1.004,1.176-2.494-2.933-5.042-5.085c-6.095-5.479,10.325,10.867,2.822,3.95c9.401,8.938,21.384,21.122,31.146,30.275l-5.16-5.43   c4.156,4.253,14.18,14.13,14.764,15.033c-3.153-3.096-6.838-6.712-10.873-10.672c-0.566,0.18,9.606,9.603,9.821,10.277   c0,0,3.056,2.747,6.112,5.495c0.364,0.332,0.828,0.729,1.008,0.93c0.249,0.271,0.453,0.578,0.606,0.9   c0.311,0.646,0.401,1.349,0.349,1.938c-0.05,0.594-0.23,1.072-0.386,1.389c-0.157,0.318-0.283,0.482-0.283,0.482   s0.242-0.271,0.475-0.755c0.238-0.479,0.424-1.193,0.385-1.915c-0.029-0.723-0.285-1.417-0.569-1.874   c-0.281-0.465-0.533-0.69-0.556-0.724c0.364,0.313,0.738,0.774,1.001,1.442c0.253,0.66,0.365,1.523,0.132,2.416   c-0.232,0.901-0.786,1.766-1.708,2.387c-0.888,0.596-2.084,0.836-3.229,0.545c-0.568-0.141-1.108-0.413-1.573-0.792   c-0.116-0.094-0.227-0.197-0.333-0.304l-0.385-0.396l-0.784-0.805c-1.049-1.079-2.115-2.175-3.177-3.267   c-2.13-2.179-4.249-4.344-6.196-6.336c2.515,2.006,5.49,4.974,8.898,8.451c0.426,0.436,0.858,0.878,1.298,1.327   c0.219,0.225,0.44,0.451,0.663,0.679c0.161,0.166,0.338,0.316,0.529,0.449c0.758,0.535,1.775,0.77,2.748,0.567   c0.964-0.182,1.873-0.831,2.385-1.728c0.516-0.888,0.61-2.035,0.226-3.011c-0.144-0.352-0.315-0.619-0.479-0.82   c-0.183-0.223-0.256-0.277-0.466-0.47c-0.288-0.233-0.495-0.385-0.521-0.354c-0.118,0.007,0.452,0.655,0.561,0.949   c0.2,0.388,0.274,0.804,0.213,0.84c-0.03,0.02-0.085-0.056-0.213-0.246c-0.067-0.093-0.151-0.215-0.274-0.358   c-0.094-0.112-0.265-0.276-0.672-0.662c0.086,0.099,0.18,0.206,0.282,0.322l0.078,0.088l0.01,0.012   c0.041,0.042-0.054-0.056-0.044-0.045l0.001,0.001l0.002,0.003l0.005,0.006l0.02,0.022l0.04,0.047   c0.056,0.064,0.119,0.137,0.114,0.144c0.063,0.098,0.205,0.31,0.287,0.491c0.181,0.388,0.297,0.871,0.269,1.365   c-0.024,0.493-0.184,0.977-0.438,1.365c-0.114,0.188-0.286,0.384-0.444,0.543c-0.124,0.13-0.294,0.267-0.433,0.362   c0,0-0.397,0.179-0.824,0.205c-0.105,0.011-0.211,0.01-0.31,0.009c-0.115-0.01-0.222-0.019-0.313-0.025   c-0.126-0.027-0.21-0.046-0.21-0.046c0.055,0,0.129-0.004,0.17-0.009l0.048-0.01l0.162-0.009c0.088-0.02,0.238-0.04,0.355-0.077   c0.249-0.069,0.497-0.173,0.724-0.322c0.448-0.283,0.875-0.799,1.028-1.356c0.173-0.569,0.104-1.254-0.225-1.787   c-0.067-0.116-0.211-0.296-0.256-0.338c0.02,0.017-0.098-0.101-0.15-0.154l-0.025-0.025l-0.013-0.013   c0.11,0.114,0.027,0.028,0.05,0.052l-0.006-0.006l-0.051-0.05l-0.103-0.099l-0.413-0.396c-0.552-0.531-1.112-1.07-1.677-1.614   c-4.515-4.351-9.335-9.023-13.328-12.617c0.715,0.616,1.349,1.145,1.613,1.301c-5.662-6.021-11.602-11.946-17.42-17.519   c2.866,3.159,4.157,4.251,5.933,5.919c0.099,0.329-5.327-4.998-7.488-6.905c5.163,5.433,0.715,1.262,3.99,4.69   c-3.561-3.34-6.324-6.167-10.479-10.42c-2.005-2.355,2.045,1.562,1.829,0.888c-4.468-4.192-5.898-6.722-12.5-12.793   c8.333,8.526-2.721-1.721-5.779-4.47l1.396,1.429c-0.735-0.601-1.43-1.192-2.082-1.775c-0.323-0.295-0.639-0.584-0.947-0.866   c-0.429-0.418-0.849-0.827-1.259-1.226c-1.76-1.749-3.288-3.395-4.486-4.839c2.499,2.429,4.955,4.816,6.61,6.425   c1.172,1.114,1.811,1.654,1.457,1.026c-1.367-1.35-2.731-2.697-4.142-4.089c-1.775-1.724-3.607-3.504-5.557-5.398l3.772,3.377   c-5.502-5.464-11.004-10.928-16.441-16.365l0.081-0.027c1.546-0.166,3.607-0.387,5.624-0.603c2.114-0.227,4.288-0.473,5.762-0.725   c3.314,0.155,6.958,0.167,10.591,0.127c1.822-0.031,3.634-0.061,5.356-0.09c0.722-0.019,1.424-0.037,2.1-0.055   c0.503-0.018,0.985-0.034,1.44-0.05l-1.695,0.143c7.065,0.292,22.785,0.048,24.11-0.255c5.047,0.27-35.68,1.925,0,1.645   c13.563-0.003,8.448-0.965,16.19-1.299c0,0-0.437,0.099,0.332,0.162c5.936,0.07,6.532-0.297,11.412-0.452   c-3.559-0.146-8.717-0.153-10.379-0.014c1.787-0.403,12.362,0.036,16.911-0.282c-5.903,0.622,11.474,0.237,6.892,0.557   c11.806,0.4,24.427-0.092,30.627-0.551c8.011,0.781,14.048-0.104,27.049,0.258c-1.998-0.023-5.624,0.094-8.419,0.01   c-7.411,0.495,13.472,0.26,2.065,0.712c2.44-0.078,0.173-0.263-2.329-0.185c-4.375,0.056-8.496,0.273-7.396,0.499l10.595,0.438   l-3.698,0.12l16.08,0.606c0.437-0.1-1.071-0.224-1.844-0.285c18.649,0.267,39.974-0.071,56.313,0.01   c3.068-1.397,40.224-0.599,53.426-1.457c-3.539,0.401-5.475,1.108-3.285,1.399c-2.943,0.059-8.972,0.623-15.647,0.506   c-1.066-0.225-9.313-0.479-4.005-0.735c-18.453,0.159,2.497,0.613-2.949,1.133c10.223-0.068,18.332-0.306,25.499-0.569   c1.805-0.066,3.551-0.13,5.255-0.192c1.753-0.047,3.466-0.042,5.157,0.006c3.381,0.099,6.673,0.378,9.997,0.87l0.307,0.22   c0,0,2.509,0.359,4.998,0.864c2.489,0.495,4.951,1.134,4.951,1.134c-3.978-1.188-5.881-1.761-5.444-1.861   c0.423-0.062,3.221,0.339,8.318,2.106l-1.262-0.356c2.889,1.053,7.354,2.603,12.051,4.737c4.703,2.113,9.613,4.833,13.558,7.564   c0,0,1.412,0.814,2.794,1.687c1.386,0.865,2.74,1.786,2.74,1.786c3.771,3.015,5.438,4.934,6.481,6.289   c1.031,1.373,1.415,2.234,2.313,3.518c5.155,5.382,8.8,10.02,11.909,14.387c3.091,4.381,5.632,8.526,7.982,13.343   c0.403,1.146,1.232,3.311,2.057,5.784c0.833,2.469,1.633,5.253,2.192,7.555c0.559,2.302,0.887,4.117,0.922,4.628   c0.021,0.516-0.203-0.285-1.031-3.133c0.905,3.252,1.539,5.53,2.079,7.474c0.549,1.946,1.018,3.558,1.434,5.493   c0.41,1.936,0.774,4.199,0.919,7.451c0.127,3.247,0.071,7.5-0.81,13.294c0,0,0.071-1.52,0.094-3.036   c0.026-1.518-0.004-3.032-0.004-3.032c-0.21,5.564-0.928,11.716-2.301,17.853c-1.36,6.139-3.384,12.246-5.823,17.764   c-2.43,5.523-5.261,10.452-7.951,14.42c-2.688,3.976-5.216,7.001-6.974,8.886c2.128-3.604-2.38,1.759-8.811,7.179   c-3.207,2.718-6.9,5.424-10.1,7.396c-3.194,1.983-5.861,3.263-6.854,3.477c0.538-0.15-0.939,0.847-2.727,1.891   c-1.779,1.056-3.879,2.128-4.39,2.45c-1.698,0.636-4.486,1.713-7.385,3.053c4.035-1.402,2.751-0.593,2.347-0.161   c-0.204,0.205-0.189,0.302,0.821-0.071c1.004-0.386,3.027-1.206,6.661-3.148c-3.536,2.237-7.795,4.542-13.512,6.639   c-5.709,2.067-12.913,3.968-22.173,4.599l0.241-0.545c0,0,3.644-0.206,7.262-0.717c3.622-0.48,7.194-1.27,7.194-1.27   c-0.764-0.031,0.696-0.428,2.688-1.012c1.994-0.576,4.513-1.374,5.938-1.95c-6.46,2.011-9.615,2.414-10.965,2.592   c-1.362,0.14-0.974-0.083-0.605-0.29c0.368-0.208,0.718-0.397-0.698-0.205c-1.421,0.146-4.597,0.833-11.404,1.345   c-1.305,0.254-1.537,0.313-2.326,0.371c-0.763,0.054-2.199,0.121-5.637,0.176c1.599-0.007,2.6-0.11,2.493-0.204   c-0.117-0.091-1.297-0.179-3.886-0.185l-4.995,0.422c-9.229-0.877,15.278-0.576,7.396-1.19c2.581-0.089,5.688-0.273,8.766-0.637   c3.086-0.354,6.169-0.879,8.796-1.464c5.258-1.177,8.676-2.487,6.985-2.348c-4.081,1.023-7.071,1.618-9.511,2.107   c-2.439,0.482-4.332,0.854-6.262,1.179c-1.931,0.316-3.899,0.599-6.501,0.738c-2.617,0.126-5.729,0.14-10.097,0.07l-1.854-0.286   c-6.123,0.195-7.112,0.658-10.465,0.939c-0.303-0.164-1.858-0.285-5.792-0.332c-10.341,0.678-17.204,0.811-26.742,1.549   c25.388-0.555,21.704,0.516,47.908,0.021c-4.106,0.219-22.555,0.379-23.688,1.107l0.245-0.529   c-8.521,0.275-17.036,0.547-27.736,0.373l6.531-0.297c-14.183,0.367-23.576-0.801-34.767,0.076c3.952,0.047,7.16,0.031,9.601-0.049   c-7.301,0.235-16.459,0.183-24.394,0.094l-16.416,0.871c0.144-0.262-10.259-0.277-5.24-0.695   c-11.82-0.402-17.391,0.385-24.221,0.516c-12.103-0.561,10.484-0.25,11.671-0.979c-8.338-0.123-16.925-0.129-24.604-0.045   c-3.84,0.043-7.452,0.107-10.693,0.19c-0.224,0.046-0.294,0.167-0.34,0.298c-0.016,0.063-0.011,0.115,0.007,0.158l0.015,0.033   c0.005,0.02,0.014,0.031,0.023-0.059l0.001-0.023l0.001,0.057l0.002,0.115l0.001,0.057l0,0.029   c0.003-0.237,0.001-0.065,0.002-0.119l0,0.001l0.001,0.001l0.006,0.008c0.005,0.01,0.016,0.018,0.024,0.023   c0.096-0.216,0.268,0.002,0.249-0.021c0.001,0.002,0.006,0.004-0.018-0.014l-0.029-0.017c0.008,0.003,0.005,0.001,0.003,0.003   c0-0.018-0.007,0.041,0-0.036c0.002-0.012,0-0.108-0.002-0.052l-0.006,0.206l0,0.013v0.007c0-0.056-0.001,0.127,0.001-0.123l0,0   l0,0.001l0,0.001l0,0.002c-0.002,0.002,0,0.003,0,0.004c-0.002,0.003,0,0.003-0.001,0.004l-0.001,0.002l0.006,0.012   c0.016,0.015,0.026,0.017,0.023,0.016c0,0,0.002-0.011,0.005-0.027c-0.005-0.016,0.035-0.023-0.07-0.056   c-0.218-0.022,0.356-0.043,0.189-0.086c0.644-0.086,1.287-0.171,1.287-0.171c6.239,0.231,5.36,0.434,0.053,0.691   c5.965,0.066,13.073-0.592,19.216-0.098c-5.091,0.206-10.88,0.219-16.061,0.213c-1.295-0.002-2.552-0.004-3.75-0.006   c-0.261,0-0.519,0-0.773,0l-0.218-0.005c0.005-0.003,0.044-0.004,0.064-0.001c0.025,0.001-0.018,0-0.022-0.004   c-0.054-0.008-0.101-0.025-0.148-0.049c-0.205-0.114-0.297-0.273-0.362-0.436c0.038,0.316,0.32,0.511,0.52,0.537   c1.859,0.027,3.508,0.051,5.031,0.073c3.427,0.075,6.282,0.202,9.314,0.327c6.066,0.249,12.844,0.485,26.333,0.268   c0.332,0.164-4.236,0.483,0.961,0.488c12.041-0.127,3.146-0.707,6.906-1.088c-9.27,0.213-13.583,0.004-18.961-0.428l2.474-0.279   c0.375,0.145,6.195,0.152,7.91,0.293l1.499-0.567c-0.692,0.628,8.621,1.105,15.94,0.87c-7.396-0.455-5.398-0.431-7.411-1.145   c10.292-0.678,11.613,0.664,23.149-0.053c-0.865,0.201-10.936,0.352-2.233,0.506c7.204,0.027,6.244-0.461,11.075-0.617   c-5.441,0.523-4.044,0.911-9.942,1.531c-12.799,0.066-5.163-0.007-17.674,0.221l10.59,0.442c-10.845,0.085-7.886,0.599-8.78,0.798   c18.52,0.532,13.957-0.793,25.873-0.656c5.744-0.358-11.162-0.076-2.176-0.451c11.143,0.076,2.541-0.341,15.047-0.568l-2.094,0.24   c3.823,0.311,7.603-0.072,12.026-0.125c4.865-0.158-5.509-1.816,14.494-1.852c-0.979,0.146-1.34,0.238-1.34,0.299l-19.514,4.391   c20.268-0.01,43.624,0.111,67.096,0.406c5.527,0.857-16.753,0.707-15.316,1.094l-10.706-0.176   c0.601-0.363,22.43-0.111,12.762-0.755c-18.904,0.261-27.481-0.157-45.415,0.593c5.571,0.861,23.62-0.152,35.286,0.513   c-4.899-0.056-9.034,0.038-13.05,0.161c10.955,0.113,22.679,0.233,35.143,0.361l2.8-0.207c-8.4-0.113-14.211-0.191-14.961-0.201   c11.133,0.068,20.549-0.368,21.238-1.117l-1.963,0.038c0,0,0.996-0.08,1.991-0.16c0.993-0.1,1.986-0.199,1.986-0.199   C353.545,395.671,356.126,395.451,358.684,395.139z M118.573,145.364c0.436-0.521,0.763-0.948,0.979-1.289   C119.329,144.428,119.694,144.148,118.573,145.364z M194.874,385.74c-3.714-0.026-7.435-0.054-11.152-0.08   c-1.858-0.016-3.715-0.031-5.569-0.047l-1.39-0.012l-0.694-0.007c-0.227-0.001-0.451-0.007-0.77,0.005   c-1.179,0.054-2.347,0.449-3.319,1.123c-1.976,1.322-3.068,3.831-2.715,6.178c0.305,2.372,2.03,4.463,4.288,5.226   c0.575,0.198,1.113,0.31,1.772,0.351c0.552,0.021,0.936,0.012,1.411,0.02c0.907,0.006,1.812,0.013,2.714,0.019   c1.805,0.011,3.6,0.021,5.384,0.032c-3.23-0.157-6.34-0.31-9.226-0.451c-1.72-0.07-3.343-0.941-4.315-2.136   c-1.005-1.199-1.422-2.673-1.344-4.021c0.07-1.298,0.602-2.485,1.311-3.299c0.708-0.832,1.572-1.339,2.363-1.601   c0.796-0.265,1.522-0.29,2.086-0.234c0.552,0.053,0.983,0.104,1.28,0.152c0.594,0.098,0.65,0.185,0.064,0.26   c-0.292,0.038-0.746,0.073-1.372,0.105c-0.584,0.031-1.331,0.159-2.124,0.597c-0.781,0.43-1.614,1.199-2.067,2.355   c-0.45,1.133-0.474,2.703,0.392,4.055c0.424,0.67,1.062,1.269,1.865,1.646c0.401,0.187,0.84,0.322,1.304,0.382   c0.411,0.064,0.999,0.031,1.545,0.037c2.223-0.002,4.671-0.004,7.358-0.007l2.814-0.09c-2.81-0.075-6.637-0.118-10.902-0.131   c-0.963,0.026-1.839-0.221-2.616-0.764c-0.764-0.533-1.358-1.341-1.625-2.257c-0.137-0.465-0.19-0.925-0.166-1.441   c0.023-0.448,0.135-0.949,0.318-1.388c0.372-0.893,1.064-1.653,1.918-2.106c0.333-0.204,0.747-0.396,1.238-0.513   c0.249-0.06,0.5-0.098,0.796-0.117c0.315-0.021,0.644-0.041,0.982-0.063c1.356-0.089,2.89-0.188,4.523-0.295   c3.264-0.222,6.923-0.471,10.344-0.703c3.419-0.249,6.601-0.479,8.912-0.647c2.31-0.18,3.749-0.308,3.685-0.343   c-2.613-0.348-6.421,0.031-11.171-0.074L194.874,385.74z M205.436,387.824c8.419,0.139,6.503-0.137,7.809-0.385   c-2.963,0.031-5.922,0.063-8.847,0.094C205.517,387.595,206.07,387.683,205.436,387.824z M212.74,387.191   c-0.946-0.006-1.753-0.018-2.175-0.051L212.74,387.191z M286.61,397.073c-0.374,0.007-0.509,0.009-0.864,0.015   c1.988,0.02,3.981,0.038,6.062,0.059C290.999,397.106,289.463,397.076,286.61,397.073z M269.522,396.465l-1.998,0.455   c1.854,0.017,3.746,0.034,5.682,0.052C272.567,396.765,271.899,396.587,269.522,396.465z M214.597,394.971   c-3.463,0.546-15.062,0.569-15.772,1.199c-0.74,0.161,1.7,0.224,4.438,0.274c3.054,0.017,6.315,0.034,9.773,0.053   c0.12-0.092,0.807-0.177,1.955-0.259c-3.415-0.079-5.696-0.235-4.313-0.622c8.779,0.844,7.867-0.6,17.357-0.383   C231.056,394.79,217.474,394.794,214.597,394.971z M126.173,203.801c-0.269-0.055-1.196-0.196-2.498-0.372l6.686-0.311   c11.925,0.137,21.478,1.041,32.212,0.264c5.023,0.195,7.713,0.608,10.283,0.948c-2.459-0.025-4.76-0.058-6.676-0.11   C136.085,205.359,150.489,203.019,126.173,203.801z M263.282,204.909c-1.229,0.039-1.671,0.142-1.671,0.142   c26.646-1.154,48.585-1.489,62.95-1.444c-2.786-0.458-15.672-0.813-21.791-1.002l5.423-0.521l3.386,0.41l9.413-0.474   c-2.632-0.351-10.234-0.278-15.315-0.547c-0.442,0.1-16.714,0.708-21.262,1.029l13.001,0.36   c-3.511-0.146-20.758-0.025-27.597,0.108c-0.135,0.262,11.651,0.665,13.135,0.097c1.403,0.388-12.185,0.392-3.592,0.808   c-10.183,0.414-26.382,0.068-33.898-0.124l-1.272-0.652c-8.247-0.253-5.571,0.786-15.369,0.409   c12.045-0.127-2.036-0.715,7.545-0.764c-3.06-0.246-0.063-0.689-9.664-0.641c-7.992,0.863-10.119-0.541-17.674,0.221   c-5.047-0.27,5.432-0.52-4.5-0.635c-11.392,0.453-10.734,0.778-11.44,1.407c10.653,0.176,11.969-0.817,20.681-0.664l-17.329,1.076   c3.194,0.152,5.557,0.168,7.541,0.125c-3.482,0.063-6.441,0.222-8.972,0.441c-1.441,0.115-2.772,0.221-4.001,0.319   c9.822,0.006,18.544,0.021,20.085,0.289l-1.354,0.305c3.478,0.28,9.145,0.061,11.757-0.163c8.794-0.033,17.578-0.458,19.5-0.063   l-3.338,0.279C248.475,204.951,249.681,204.913,263.282,204.909z M358.68,384.464c3.262,0.021,6.759-0.014,13.04-1.532   c3.13-0.782,6.951-1.973,11.619-4.041c4.65-2.082,10.174-5.041,16.311-9.674c0,0-0.476,0.374-0.951,0.748   c-0.48,0.368-0.961,0.735-0.961,0.735c6.535-4.197,12.062-9.54,17.051-15.739c4.979-6.229,9.463-13.313,13.703-21.718   c-1.715,4.241-2.719,6.174-3.7,8.249c-1.026,2.056-2.017,4.271-4.607,8.708c0,0,1.406-2.054,2.682-4.186   c1.291-2.122,2.452-4.313,2.452-4.313c-0.438,1.336,0.567-0.149,1.998-2.846c1.436-2.693,3.184-6.635,4.487-10.043   c0,0-0.402,1.57-0.871,3.129c-0.46,1.56-0.985,3.106-0.985,3.106c-1.016,1.963-2.871,5.463-4.632,8.331   c-1.739,2.879-3.313,5.161-3.148,5.071c0.653-1.072-1.563,1.999-5.027,5.953c-3.436,3.986-8.281,8.671-11.841,11.803   c0.544-0.112,4.548-3.543,7.368-6.427c1.427-1.424,2.594-2.668,3.089-3.086c0.488-0.423,0.335,0.004-1.022,1.824   c2.531-3.083,3.921-4.831,5.351-6.614c1.402-1.8,2.855-3.64,4.976-7.23c-1.975,3.479-2.177,3.95-2.158,4.253   c-0.004,0.289,0.182,0.393-1.441,2.929c0,0,2.024-2.8,3.818-5.749c1.817-2.936,3.39-6.007,3.39-6.007   c0.174-0.112-2.138,4.354-4.059,7.482c-0.939,1.575-1.736,2.839-1.835,3.166c-0.107,0.32,0.511-0.275,2.218-2.567   c1.443-2.388,4.089-6.771,5.998-10.798c1.942-4.009,3.217-7.585,3.021-7.799l0.273-0.262c1.854-4.869,1.905-6.06,2.174-7.475   c0.118-0.714,0.261-1.496,0.573-2.867c0.305-1.374,0.798-3.334,1.442-6.45c-0.254-0.196-0.781,2.166-1.839,6.579   c-0.405,1.879-0.64,2.966-0.982,4.551c-0.379,1.577-0.905,3.655-2.339,7.363c-0.863,1.571,0.071-0.634,0.792-2.657   c0.716-2.028,1.252-3.848,0.035-1.365c-0.593,1.233-2.37,6.128-4.205,9.851c-1.807,3.735-3.417,6.363-2.345,3.667   c-0.001,0,1.256-2.23,2.375-4.534c1.137-2.296,2.128-4.66,2.128-4.66c-0.193-0.223,0.422-2.04,0.941-3.822   c0.529-1.779,0.978-3.516,0.741-3.482c1.691-5.946,3.521-11.601,3.786-17.972c-0.028-1.325-0.323-0.861-0.441-1.364   c-0.146-0.505,0.017-1.953,0.306-7.145c0.239-2.025,0.37-5.061,0.213-8.603c-0.151-3.542-0.607-7.587-1.388-11.601   c-0.77-4.017-1.867-7.994-3.053-11.453c-1.182-3.462-2.444-6.405-3.396-8.449c0,0-0.881-1.769-1.847-3.487   c-0.956-1.725-1.99-3.4-1.989-3.4c0.031,0.365,1.838,3.653,3.087,6.423c1.262,2.765,2.089,4.934,0.94,2.686   c0,0-1.21-2.807-2.622-5.514c-1.391-2.718-2.978-5.325-2.978-5.325l0.651,0.711c-1.983-3.537-4.48-6.865-6.807-9.72   c1.31,1.388,3.182,3.93,4.566,5.965c1.39,2.032,2.348,3.525,2.146,2.625c-1.428-2.506-2.289-3.934-3.149-5.292   c-0.87-1.352-1.737-2.643-3.41-4.712c0.745,0.891,1.382,1.665,1.356,1.5c-3.437-4.758-5.547-6.699-6.852-7.836   c-1.333-1.119-1.961-1.385-3.056-2.35c-2.213-1.918-2.859-2.275-2.532-1.847c0.319,0.436,1.571,1.706,2.986,3.252   c2.872,3.061,6.192,7.378,5.495,6.987c0,0-1.319-1.642-3.463-3.959c-2.141-2.318-5.145-5.273-8.373-7.966   c-3.216-2.708-6.642-5.15-9.293-6.847c-2.649-1.703-4.49-2.711-4.491-2.711c2.577,1.269,5.085,2.738,4.301,1.95   c-3.429-2.33-3.461-2.381-3.816-2.695c-0.185-0.147-0.464-0.341-1.338-0.848c-0.877-0.502-2.346-1.327-4.981-2.586   c0.207,0.529-3.12-1.021-7.63-2.621c-4.496-1.637-10.228-3.155-14.286-3.699c-1.844-0.517-2.973-0.782-2.597-0.779   c0.371,0.025,2.263,0.252,6.345,1.209c-0.408-0.353-3.376-1.142-6.779-1.701c-3.4-0.581-7.222-0.887-9.226-1.009   c-2.332-0.051-6.293,0.026-8.79,0.144c3.353,0.243,1.921,0.549-5.336,0.757l-0.423,0.103c2.972,0.047,6.356,0.101,9.877,0.157   c3.491,0.083,7.107,0.388,10.558,0.863c6.912,0.929,13.103,2.639,16.684,3.558l-2.063-0.39c6.458,2.128,13.335,4.894,19.045,8.019   c5.721,3.092,10.247,6.461,12.368,8.812c-0.67-0.096,2.038,1.82,1.503,2.074c0,0,1.949,1.549,3.803,3.219   c1.863,1.66,3.628,3.432,3.628,3.432l-1.598-1.346c0,0,2.983,3.018,5.639,6.33c2.689,3.283,5.023,6.833,5.024,6.833l-0.329-0.321   c4.841,6.471,7.856,12.148,10,16.787c0.214-0.061,0.114-0.598,1.213,1.913c1.031,2.548,1.65,4.545,2.118,6.343   c0.005,0.014,0.005,0.014,0.007,0.013l-0.003,0.001c1.033,4.115,1.338,6.946,1.943,12.101c0,0-0.531-3.964-1.451-7.853   c-0.88-3.898-2.138-7.692-2.138-7.692c-0.388-0.559-0.566-0.48-0.395,0.669c0.161,1.152,0.704,3.369,1.439,7.167   c-0.752-3.074-1.385-4.264-0.483-0.474c0.104,0.195,0.738,2.693,1.178,4.704c0.442,2.008,0.765,3.516,0.637,1.622   c1.27,7.396,1.573,17.37-0.241,28.004c-1.76,10.641-5.713,21.817-11.218,31.793c1.959-3.594,2.37-4.757,2.241-4.623   c-0.146,0.125-0.919,1.501-1.709,2.8c-0.401,0.646-0.795,1.278-1.085,1.746c-0.3,0.461-0.498,0.754-0.502,0.725   c-0.005-0.03,0.191-0.379,0.66-1.215c0.468-0.835,1.211-2.157,2.23-4.167c-3.208,5.416-4.654,7.681-6.007,10.078   c-0.693,1.187-1.399,2.38-2.455,3.896c-1.059,1.512-2.46,3.355-4.652,5.724c-0.457,0.327,0.75-0.948,2.197-2.687   c1.452-1.734,3.105-3.96,3.791-5.286c-6.427,8.524-12.893,14.918-19.992,20.386c-7.125,5.404-14.995,9.923-24.957,13.036   l-0.994-0.199C367.394,382.609,363.158,383.697,358.68,384.464z M317.192,386.144c-4.063,0.055-8.184,0.11-12.372,0.168   c0.408,0.005,0.788,0.009,1.216,0.014l-12.209,0.393c7.502,0.19,12.443,0.727,1.945,0.976c0.884-0.202-2.186-0.448,1.465-0.566   c-7.036-0.292-22.473-0.575-18.448,0.161c13.521-0.696,3.151,0.938,13.774,0.421c-5.7,0.479-11.349,0.264-16.732,0.478   c5.604-0.4-1.307-0.909-9.726-1.101c-3.665,0.118-13.583,0.005-19.672,0.2c2.171,0.449-3.131,0.707,6.791,0.82   c-3.641,0.119-9.274,0.213-15.585-0.02c2.502-0.076,6.877-0.133,6.575-0.295c-4.072-0.414-8.842-0.396-11.474-0.573   c-2.099,0.024-4.217,0.049-6.277,0.072c0.615,0.04,1.148,0.091,1.527,0.155l-6.974,0.396c9.289-0.211,4.294,0.209,4.174,0.473   c0.25-0.527-5.979-0.068-9.159-0.051l6.906,0.557c-3.338,0.279-11.786-0.402-10.042,0.148c14.653,0.221,20.287,0.127,33.538-0.039   l-5.379-0.434c14.951-0.306,9.222,0.742,25.998,0.722c6.974-0.396,25.229-0.027,25.574-0.819   c-2.104,0.242,10.446,0.705,16.195,0.346c6.354-0.723,25.57-0.82,19.749-1.15c-5.191-0.01-12.18,0.389-16.354-0.082l10.071-0.151   l-6.608-0.394C319.094,387.109,318.762,386.724,317.192,386.144z M243.851,402.244c0.11,0.003,0.254,0.007,0.389,0.011   c-0.149-0.001-0.293-0.002-0.432-0.003L243.851,402.244z" fill="#202020"/><path d="M155.719,280.775c-0.302,0.854-1.018,1.958-2.1,2.751c-1.085,0.822-2.532,1.259-3.813,1.245   c-1.283,0.009-2.364-0.385-2.985-0.666c-0.622-0.29-0.862-0.402-0.521-0.05c0.01-0.14,0.904,0.481,2.383,0.745   c0.184,0.029,0.375,0.057,0.574,0.073c0.205,0.02,0.472,0.029,0.596,0.026c0.453,0.001,0.866-0.039,1.313-0.125   c0.878-0.167,1.755-0.538,2.485-1.049c1.475-1.005,2.247-2.529,2.448-3.313c0.113-0.396,0.126-0.613,0.082-0.568   C156.124,279.886,156.029,280.198,155.719,280.775z" fill="#202020"/><path d="M146.903,283.306c-0.277-0.115-0.355-0.08-0.748-0.316c-0.438-0.283-0.935-0.76-2.082-1.885   c0,0,0.396,0.387,0.989,0.966c0.148,0.145,0.309,0.302,0.479,0.468c0.167,0.165,0.419,0.4,0.663,0.582   c0.5,0.389,1.104,0.712,1.74,0.93c0.629,0.214,1.33,0.322,1.926,0.319c0.655,0.002,1.22-0.098,1.708-0.238   c0.483-0.139,0.866-0.315,1.124-0.453c0.258-0.138,0.398-0.23,0.398-0.23c0,0-0.354,0.223-0.934,0.439   c-0.578,0.219-1.394,0.39-2.21,0.364c-0.816-0.018-1.612-0.229-2.167-0.472C147.234,283.539,146.903,283.306,146.903,283.306z" fill="#202020"/><path d="M142.365,274.882c-3.451-3.001-5.623-4.919-10.666-10.003c-1.167-2.637,8.495,8.084,11.477,9.694   c-9.212-9.351-12.704-11.558-20.4-19.13C126.252,259.533,141.527,275.162,142.365,274.882z" fill="#202020"/><polygon fill="#202020" points="147.416,278.076 142.088,273.08 142.554,273.633 147.885,278.632  "/><path d="M123.483,209.83c0.658,0.325,5.207,0.005,7.646-0.073C129.145,209.736,126.369,209.651,123.483,209.83z" fill="#202020"/><path d="M99.649,188.161c-0.795,0.016-1.59,0.032-2.347,0.032l2.169-2.269l1.139-1.188l3.088-3.138l16.591-16.79   c-4.78,4.825-9.405,9.492-14.675,14.812c-1.317,1.33-2.675,2.701-4.086,4.125c-0.521,0.536-1.063,1.091-1.628,1.672   c-0.823,0.858-1.716,1.789-2.708,2.821C97.522,188.228,98.552,188.196,99.649,188.161z" fill="#202020"/><path d="M308.261,207.707c-14.951,0.306-21.594,0.866-36.828,1.009c20.032,0.654,26.459-1.022,43.278-0.352   L308.261,207.707z" fill="#202020"/><path d="M302.988,210.299c-2.479-0.612,11.536-0.717,9.365-1.166c-10.076,0.149-4.692,0.583-13.837,0.53   L302.988,210.299z" fill="#202020"/><polygon fill="#202020" points="235.234,200.185 239.768,199.866 236.118,199.983  "/><path d="M369.175,213.285l-1.527-0.293c0,0,1.681,0.513,3.334,1.1c1.657,0.578,3.282,1.235,3.282,1.235   s-1.252-0.551-2.525-1.06C370.467,213.754,369.175,213.285,369.175,213.285z" fill="#202020"/><path d="M366.118,212.727l1.529,0.265L366.118,212.727z" fill="#202020"/><polygon fill="#202020" points="241.06,198.872 234.322,198.741 230.989,199.023  "/><path d="M300.533,202.155l-6.028,0.196C295.701,202.313,303.948,202.565,300.533,202.155z" fill="#202020"/><path d="M405.479,235.337c0,0,1.254,1.175,2.457,2.406c1.21,1.223,2.362,2.504,2.362,2.504l-0.411-0.574   c0,0-1.163-1.266-2.375-2.48c-1.212-1.215-2.471-2.379-2.471-2.379L405.479,235.337z" fill="#202020"/><path d="M347.832,200.518c-2.161-0.289,0.972-0.275,3.531-0.116c2.555,0.171,4.546,0.335,0.099-0.245   c-1.99-0.118-3.284-0.125-4.084-0.113c-0.8,0.018-1.108,0.059-1.133,0.107C346.197,200.251,347.28,200.383,347.832,200.518z" fill="#202020"/><path d="M422.12,245.952c0.544,0.833,1.116,1.711,1.668,2.559C423.156,247.487,422.594,246.647,422.12,245.952z" fill="#202020"/><path d="M422.12,245.952c-1.731-2.701-3.493-5.402-4.965-7.051C419.462,242.177,420.3,243.366,422.12,245.952z" fill="#202020"/><path d="M435.481,279.995c0,0-0.12-0.719-0.24-1.438c-0.132-0.717-0.263-1.435-0.263-1.435   c0.788,2.886,0.514,1.496-0.214-1.071c-0.694-3.014-0.835-2.799-1.013-3.132c-0.216-0.58-0.431-1.157-0.663-1.783   c0.303,0.901,0.574,1.712,0.805,2.399C435.022,278.175,435.421,281.068,435.481,279.995z" fill="#202020"/><path d="M365.872,376.988c4.778-1.167,7.702-2.228,9.415-2.791c1.711-0.576,2.216-0.686,2.039-0.409   c4.354-1.788,6.035-2.893,7.302-3.732c1.254-0.869,2.086-1.527,4.444-3.067c-4.484,2.798-7.378,4.157-10.518,5.551   C375.391,373.879,371.962,375.3,365.872,376.988z" fill="#202020"/><path d="M389.073,366.988c1-0.633,1.945-1.256,3.071-2.042C390.864,365.797,389.915,366.428,389.073,366.988z" fill="#202020"/><path d="M421.877,238.401c0,0,1.156,1.314,2.261,2.68c1.108,1.361,2.168,2.769,2.168,2.769   s-0.365-0.531-0.731-1.062c-0.372-0.525-0.744-1.051-0.744-1.051s-0.729-0.844-1.459-1.688   C422.624,239.225,421.877,238.401,421.877,238.401z" fill="#202020"/><path d="M351.48,379.217c1.819-0.108,4.714-0.476,6.149-0.583c0.229-0.222-1.745,0.055-3.568,0.257   C352.24,379.101,350.573,379.274,351.48,379.217z" fill="#202020"/><path d="M390.899,374.076c0.521-0.179,2.235-1.17,4.064-2.376c1.833-1.2,3.77-2.622,4.899-3.433   C396.642,370.647,393.574,371.853,390.899,374.076z" fill="#202020"/><path d="M321.394,380.988c1.984,0.023,5.034,0.269,3.713,0.57C327.989,381.381,331.888,380.736,321.394,380.988z" fill="#202020"/><path d="M373.174,382.039l1.48-0.371c0,0,1.705-0.653,3.379-1.376c1.675-0.72,3.314-1.511,3.314-1.511   c0-0.001-1.999,0.918-4.046,1.728C375.26,381.33,373.174,382.039,373.174,382.039z" fill="#202020"/><path d="M399.432,374.939c3.408-2.695,0.471-0.869-1.865,0.375c-1.169,0.624-2.188,1.111-2.137,0.943   c0.041-0.181,1.187-0.963,4.147-3.153c-3.952,2.637-5.959,3.728-6.769,4.267c-0.821,0.521-0.486,0.429-0.008,0.267   c0.479-0.16,1.094-0.403,0.836-0.149c-0.262,0.244-1.38,1.025-4.5,2.667c3.685-1.862,6.378-3.368,8.106-4.283   C398.967,374.95,399.728,374.622,399.432,374.939z" fill="#202020"/><path d="M389.137,380.155c-1.072,0.539-2.239,1.111-3.514,1.716C387.041,381.219,388.17,380.657,389.137,380.155z" fill="#202020"/><path d="M273.064,388.336c1.196-0.047,2.013-0.096,2.767-0.148C274.889,388.224,273.99,388.269,273.064,388.336z" fill="#202020"/><path d="M345.886,391.445c0,0,3.235-0.188,6.437-0.615c3.204-0.404,6.36-1.046,6.36-1.046   c-2.107,0.426-5.047,0.85-8.258,1.105c-1.604,0.129-3.276,0.217-4.942,0.26c-1.604,0.033-3.202,0.066-4.726,0.099   c-6.052,0.129-10.912,0.285-10.267,0.61c3.357,0.066,7.056,0.056,10.329-0.006c1.649-0.032,3.141-0.071,4.524-0.132   c1.396-0.06,2.578-0.162,3.445-0.268c0,0-0.726,0.004-1.452,0.008C346.612,391.453,345.886,391.445,345.886,391.445z" fill="#202020"/><path d="M204.211,379.642l5.332-0.258l-6.657-0.076C204.792,379.406,201.344,379.885,204.211,379.642z" fill="#202020"/><path d="M201.598,379.295l1.287,0.014C202.602,379.292,202.194,379.285,201.598,379.295z" fill="#202020"/><path d="M296.401,388.019c3.986,0.047,7.175,0.029,10.811-0.088C305.703,387.808,295.772,387.694,296.401,388.019z" fill="#202020"/><path d="M164.556,394.513c0,0-0.079-0.306-0.166-0.848c-0.04-0.271-0.083-0.602-0.108-0.98   c-0.016-0.19-0.019-0.391-0.025-0.604c0.001-0.164,0.002-0.337,0.003-0.518c0.009-0.246,0.032-0.635,0.061-0.877   c0.028-0.251,0.062-0.511,0.111-0.776c0.093-0.531,0.23-1.088,0.421-1.648c0.374-1.122,0.964-2.255,1.726-3.256   c1.508-2.03,3.747-3.401,5.562-3.962c0.904-0.297,1.69-0.428,2.236-0.491c0.548-0.061,0.861-0.067,0.861-0.067   s-0.342,0.005-0.939,0.074c-0.597,0.07-1.454,0.223-2.435,0.567c-1.967,0.653-4.363,2.261-5.84,4.611   c-0.749,1.156-1.279,2.459-1.554,3.724c-0.071,0.315-0.125,0.629-0.167,0.936c-0.019,0.157-0.037,0.313-0.055,0.468   c-0.013,0.192-0.026,0.383-0.039,0.57l-0.008,0.268c0,0.15-0.001,0.3-0.001,0.446c0.004,0.275,0.019,0.542,0.042,0.798   c0.086,1.026,0.305,1.87,0.484,2.445c0.185,0.575,0.323,0.892,0.324,0.892c0,0-0.161-0.434-0.283-0.877   C164.641,394.964,164.557,394.513,164.556,394.513z" fill="#202020"/><polygon fill="#202020" points="209.986,404.467 211.504,404.59 218.799,404.356 217.258,404.234  "/><path d="M179.313,392.299c5.965,0.068,10.624-0.516,9.063-0.64l-11.565,0.026c2.939,0.512,3.208-0.016,9.913,0.113   L179.313,392.299z" fill="#202020"/><path d="M452.124,284.222c0.333,1.346,0.713,5.397,0.732,9.201c0.037,3.803-0.28,7.338-0.459,7.68   c0.015-1.816-0.129-9.075-0.349-4.517c0,0,0.193,2.646,0.24,5.313c0.065,2.664-0.022,5.34-0.022,5.34   c-0.523,3.514-0.873,4.568-0.924,4.102c-0.064-0.468,0.103-2.468,0.241-5.121c0.143-2.654,0.232-5.963,0.168-9.035   c-0.06-3.073-0.257-5.909-0.426-7.632c0.297,7.127,0.152,11.755-0.162,16.493c-0.372,4.728-0.881,9.608-2.801,16.994   c1.216-4.331,1.932-7.096,2.52-9.416c0.323-0.213-0.104,3.219-1.241,7.883c-1.111,4.669-3.063,10.507-5.023,15.236   c1.353-2.969,1.663-3.593,1.527-2.87c-0.149,0.718-0.813,2.756-1.662,4.993c-0.33,0.795-0.53,1.331-0.666,1.717   c-0.209,0.517-0.406,1.005-0.61,1.508l0.523-1.122c0.021,0.106,0.215-0.105,0.68-0.877c3.375-7.986,5.691-14.249,6.992-19.712   c-1.147,2.569,0.087-2.037,1.076-8.275c0.494-3.119,0.906-6.648,1.109-9.84c0.21-3.192,0.222-6.041,0.125-7.791   c0,0-0.036-2.021-0.162-4.041c-0.11-2.019-0.311-4.031-0.31-4.031c0,0-0.069-0.754-0.138-1.507   c-0.078-0.753-0.157-1.505-0.157-1.505c0.011-0.613,0.333,0.213,0.857,4.817c-0.211-1.922-0.622-6.09-1.241-9.591   c-0.588-3.506-1.303-6.341-1.322-5.729c0,0-0.361-1.798-1.049-4.46c-0.679-2.664-1.729-6.18-2.971-9.628   c-1.241-3.45-2.679-6.824-3.856-9.307c-1.169-2.487-2.032-4.103-2.032-4.103c-0.389-0.827-0.778-1.653-1.044-2.279   c-0.549-0.858-0.676-0.981-0.652-0.841c0,0-0.957-1.752-2.816-4.706c-1.864-2.948-4.671-7.083-8.515-11.668   c-3.831-4.59-8.707-9.621-14.485-14.367c-5.769-4.753-12.441-9.2-19.547-12.833c-7.099-3.651-14.616-6.465-21.855-8.354   c-7.24-1.902-14.183-2.893-20.146-3.289c-2.963-0.204-5.768-0.263-8.106-0.253c-2.265,0.001-4.24,0.002-5.866,0.003   c-3.253,0.001-5.111,0.002-5.111,0.002c2.935,0.038,5.671,0.112,8.43,0.189c1.402,0.041,2.812,0.081,4.253,0.123   c1.516,0.054,3.065,0.127,4.678,0.243c-4.856,0.135-2.204,0.216,1.279,0.448c3.49,0.225,7.799,0.828,6.354,0.948   c-2.163-0.16-4.819-0.379-7.41-0.527c-2.565-0.154-5.174-0.234-6.945-0.301c-0.654,0.153,0.255,0.293,1.322,0.45   c1.087,0.152,2.264,0.341,1.951,0.517c7.877,0.405,12.403,0.855,16.912,1.337c2.251,0.264,4.492,0.582,7.099,1.138   c2.605,0.559,5.584,1.346,9.24,2.684c-0.354,0.071-1.688-0.209-1.732-0.092c-0.052,0.134,1.229,0.526,5.949,2.359l-2.427-0.856   c3.83,1.33,6.398,2.506,8.281,3.441c1.883,0.942,3.078,1.659,4.109,2.276c2.054,1.262,3.479,2.053,8.059,4.358l-0.51,0.299   c3.192,1.801,7.681,4.843,11.896,8.375c4.239,3.506,8.172,7.497,10.865,10.494l-0.397-0.29c3.865,4.125,6.078,7.013,7.659,9.138   c1.571,2.137,2.491,3.542,3.428,5.038c0.933,1.498,1.891,3.083,3.336,5.714c1.418,2.642,3.396,6.305,5.794,12.21   c0,0-1.212-2.676-2.569-5.269c-1.341-2.603-2.846-5.104-2.846-5.105c1.901,3.935,3.065,6.343,4.099,8.479   c1.023,2.141,1.916,4.019,2.892,7.013c-0.119-0.197-0.152,0.079-0.408-0.292c-0.264-0.368-0.709-1.397-1.815-4.139   c0,0,0.772,1.757,1.773,4.458c1,2.701,2.213,6.355,3.174,10.088c0.98,3.728,1.721,7.521,2.163,10.384   c0.448,2.863,0.638,4.789,0.638,4.789C452.644,294.269,452.09,285.397,452.124,284.222z" fill="#202020"/><path d="M448.364,323.04c-0.447,1.572-0.969,3.355-1.622,5.449C447.406,326.479,447.915,324.727,448.364,323.04z" fill="#202020"/><path d="M324.829,186.809l8.357-0.005C330.598,186.772,327.899,186.762,324.829,186.809z" fill="#202020"/><path d="M429.476,363.006c1.776-2.043,1.234-1.187,0.177,0.289c-1.056,1.476-2.696,3.51-2.939,3.927   c-0.001,0,3.226-3.654,6.079-7.604c2.888-3.926,5.378-8.119,5.378-8.119c-0.213-0.028,0.566-1.8,0.206-1.558   c0,0-1.973,3.433-4.213,6.695C431.948,359.914,429.476,363.006,429.476,363.006z" fill="#202020"/><path d="M441.288,346.769c0.187-0.651,1.041-2.538,1.919-4.679c0,0-1.134,2.417-2.403,4.766   c-1.251,2.358-2.634,4.642-2.634,4.642C438.32,351.51,439.118,350.593,441.288,346.769z" fill="#202020"/><path d="M430.827,343.311c0,0,0.37-0.687,0.739-1.372c0.359-0.692,0.719-1.384,0.719-1.384s0.508-1.065,0.986-2.143   c0.466-1.082,0.933-2.164,0.933-2.164s-0.769,1.799-1.617,3.563C431.747,341.581,430.827,343.311,430.827,343.311z" fill="#202020"/><path d="M444.089,296.668c-0.171,1.877-0.289,4.591-0.476,7.132c-0.173,2.542-0.413,4.908-0.545,6.095   c0.559-4.071,0.633-5.235,0.757-6.443C443.913,302.241,444.073,300.978,444.089,296.668z" fill="#202020"/><path d="M440.185,306.429c0,0,0.179-1.906,0.267-3.818c0.098-1.912,0.115-3.824,0.115-3.824l-0.086,0.71   c0,0-0.006,1.733-0.085,3.468C440.327,304.698,440.185,306.429,440.185,306.429z" fill="#202020"/><path d="M263.061,188.884c-1.325,0.011-2.612,0.022-3.952,0.034C260.919,188.92,262.101,188.906,263.061,188.884z" fill="#202020"/><path d="M332.461,188.381c-19.293-0.592,12.641-0.492,6.58-1.25l-10.499,0.251l0.894-0.203l-12.805,0.066   c2.627,0.348,4.602,0.37,4.029,0.735c-17.093-0.143-5.389-0.434-17.929-0.895l-19.105,0.066l1.547-0.109   c-1.609,0.008-2.32,0.054-2.872,0.113l-64.386,0.228c-11.714,0.29,6.479,0.657-2.162,1.195c13.578-0.002,33.754,0.387,34.907-0.342   c-0.456,0.101-1.354,0.302,1.398,0.388l7.853-0.6l-7.488-0.191c7.896-0.598,33.394-0.465,38.004-0.094   c-14.499,0.204-7.224,0.924-27.424,0.533c0.908,0.185,4.606,0.51,0.058,0.611C286.729,188.672,307.943,189.004,332.461,188.381z" fill="#202020"/><path d="M100.105,188.732l0.123-0.066C100.054,188.701,99.98,188.728,100.105,188.732z" fill="#202020"/><path d="M102.989,188.823l11.537-0.714l-13.492,0.057c0.022,0-0.783,0.501-0.806,0.501   c0.324-0.063,1.022-0.159,1.666-0.213l0.479-0.033c0.206-0.007,0.138-0.011,0.777-0.01c0.96,0.001,1.812,0.022,2.423,0.071   L102.989,188.823z" fill="#202020"/><path d="M127.92,187.676c-9.289,0.213-8.785,0.803-3.718,1.072c-8.53,0.274-4.5-0.634-10.374-0.011   c0.192,0.426,10.706,0.176,13.122,0.098L127.92,187.676z" fill="#202020"/><polygon fill="#202020" points="196.456,187.987 193.843,188.231 200.279,188.296  "/><path d="M193.843,188.231l-6.388-0.066c0.442,0.182,0.879,0.359,1.921,0.483L193.843,188.231z" fill="#202020"/><path d="M170.694,187.995c-2.704-0.027-5.696-0.057-9.336-0.093L170.694,187.995z" fill="#202020"/><path d="M177.999,188.146l-0.216-0.077l-7.089-0.073C173.306,188.049,175.65,188.097,177.999,188.146z" fill="#202020"/><path d="M187.455,188.165c-1.037-0.413-2.252-0.847-11.488-0.732l1.815,0.636L187.455,188.165z" fill="#202020"/><path d="M431.073,252.094c0,0-0.837-1.527-1.73-3.02c-0.888-1.496-1.835-2.952-1.835-2.952l0.321,0.664   c0,0,0.934,1.463,1.81,2.962c0.886,1.495,1.704,3.029,1.704,3.029L431.073,252.094z" fill="#202020"/><path d="M406.369,220.666c-1.382-1.04-2.462-1.784-3.458-2.435C404.392,219.283,405.553,220.147,406.369,220.666z" fill="#202020"/><path d="M379.64,208.056c-3.649-1.625-1.028-0.789,0.786-0.169c0.907,0.306,1.605,0.565,1.232,0.354   c-0.376-0.199-1.812-0.903-5.3-2.204c-1.14-0.792,5.75,0.937,11.947,4.404c-0.648,0.021-6.283-2.765-2.535-0.587   c4.376,1.675,5.766,2.886,4.606,1.593c3.543,1.754,5.49,2.802,7.173,3.678c1.675,0.891,3.085,1.622,5.361,3.107   c-3.905-2.832-10.132-7.041-17.213-10.354c-7.046-3.37-14.896-5.754-20.947-6.635c-3.362-0.354-4.074-0.026-3.974,0.41   c0.104,0.445,0.999,1.083,0.899,1.547c0.467,0.19,4.865,1.088,9.132,2.32C375.087,206.711,379.224,208.226,379.64,208.056z" fill="#202020"/><path d="M390.48,214.314c3.148,1.859,4.093,2.455,6.016,3.619C396.172,217.323,393.066,215.732,390.48,214.314z" fill="#202020"/><path d="M305.364,195.15c-0.759,0.136-7.953,0.304-6.406,0.538l10.907-0.171   C307.304,195.494,306.402,195.328,305.364,195.15z" fill="#202020"/><path d="M314.648,195.444l-4.783,0.073C311.06,195.529,312.539,195.51,314.648,195.444z" fill="#202020"/><path d="M304.845,195.066c0.173,0.028,0.327,0.053,0.519,0.084C305.518,195.121,305.489,195.092,304.845,195.066z" fill="#202020"/><path d="M144.225,187.758c0.154-0.262-4.707-0.105-7.146-0.028C139.062,187.752,141.848,187.838,144.225,187.758z" fill="#202020"/><path d="M138.316,116.99l-3.184,2.889C136.294,118.893,136.887,118.386,138.316,116.99z" fill="#202020"/><path d="M96.573,168.83c-0.052,0.124-0.246,0.378-0.52,0.709C96.332,169.214,96.512,168.973,96.573,168.83z" fill="#202020"/><path d="M96.053,169.539c-1.921,2.229-8.566,8.394-10.635,10.93l0.221-0.363l-4.147,4.425   C85.489,180.493,93.95,172.09,96.053,169.539z" fill="#202020"/></g></svg>